<?xml version="1.0" encoding="UTF-8"?>
<svg width="700pt" height="700pt" version="1.1" viewBox="0 0 700 700" xmlns="http://www.w3.org/2000/svg" xmlns:xlink="http://www.w3.org/1999/xlink">
 <defs>
  <symbol id="p" overflow="visible">
   <path fill="currentColor" d="m29.312-1.75c-1.5117 0.78125-3.0898 1.3711-4.7344 1.7656-1.6367 0.40625-3.3398 0.60938-5.1094 0.60938-5.3125 0-9.5273-1.4844-12.641-4.4531-3.1055-2.9688-4.6562-7-4.6562-12.094s1.5508-9.125 4.6562-12.094c3.1133-2.9688 7.3281-4.4531 12.641-4.4531 1.7695 0 3.4727 0.19922 5.1094 0.59375 1.6445 0.39844 3.2227 0.99219 4.7344 1.7812v6.5938c-1.5312-1.0391-3.0391-1.8008-4.5156-2.2812-1.4805-0.48828-3.0391-0.73438-4.6719-0.73438-2.9375 0-5.2461 0.94531-6.9219 2.8281-1.6797 1.875-2.5156 4.4648-2.5156 7.7656 0 3.293 0.83594 5.8828 2.5156 7.7656 1.6758 1.875 3.9844 2.8125 6.9219 2.8125 1.6328 0 3.1914-0.23828 4.6719-0.71875 1.4766-0.48828 2.9844-1.2539 4.5156-2.2969z"/>
  </symbol>
  <symbol id="j" overflow="visible">
   <path fill="currentColor" d="m21.453-17.406c-0.67969-0.3125-1.3516-0.53906-2.0156-0.6875-0.65625-0.15625-1.3203-0.23438-1.9844-0.23438-1.9688 0-3.4844 0.63281-4.5469 1.8906-1.0547 1.2617-1.5781 3.0703-1.5781 5.4219v11.016h-7.6562v-23.922h7.6562v3.9219c0.97656-1.5625 2.1016-2.7031 3.375-3.4219 1.2812-0.71875 2.8125-1.0781 4.5938-1.0781 0.25 0 0.52344 0.011719 0.82812 0.03125 0.30078 0.023438 0.73438 0.070312 1.2969 0.14062z"/>
  </symbol>
  <symbol id="b" overflow="visible">
   <path fill="currentColor" d="m27.562-12.031v2.1875h-17.891c0.1875 1.793 0.83203 3.1367 1.9375 4.0312 1.1133 0.89844 2.6719 1.3438 4.6719 1.3438 1.6016 0 3.25-0.23438 4.9375-0.70312 1.6875-0.47656 3.4219-1.2031 5.2031-2.1719v5.8906c-1.8047 0.6875-3.6094 1.2031-5.4219 1.5469-1.8125 0.35156-3.6211 0.53125-5.4219 0.53125-4.3359 0-7.7031-1.0977-10.109-3.2969-2.3984-2.207-3.5938-5.2969-3.5938-9.2656 0-3.9062 1.1758-6.9727 3.5312-9.2031 2.3633-2.2383 5.6094-3.3594 9.7344-3.3594 3.7578 0 6.7695 1.1367 9.0312 3.4062 2.2578 2.2617 3.3906 5.2812 3.3906 9.0625zm-7.8594-2.5312c0-1.457-0.42969-2.6289-1.2812-3.5156-0.84375-0.89453-1.9492-1.3438-3.3125-1.3438-1.4922 0-2.6992 0.41797-3.625 1.25-0.91797 0.83594-1.4922 2.0391-1.7188 3.6094z"/>
  </symbol>
  <symbol id="i" overflow="visible">
   <path fill="currentColor" d="m14.391-10.766c-1.5938 0-2.793 0.27344-3.5938 0.8125-0.80469 0.54297-1.2031 1.3398-1.2031 2.3906 0 0.96875 0.32031 1.7305 0.96875 2.2812 0.64453 0.54297 1.5469 0.8125 2.7031 0.8125 1.4375 0 2.6445-0.51562 3.625-1.5469 0.98828-1.0312 1.4844-2.3203 1.4844-3.875v-0.875zm11.688-2.8906v13.656h-7.7031v-3.5469c-1.0312 1.4492-2.1875 2.5078-3.4688 3.1719s-2.8398 1-4.6719 1c-2.4805 0-4.4961-0.72266-6.0469-2.1719-1.543-1.4453-2.3125-3.3203-2.3125-5.625 0-2.8125 0.96094-4.8672 2.8906-6.1719 1.9375-1.3125 4.9688-1.9688 9.0938-1.9688h4.5156v-0.60938c0-1.207-0.48047-2.0938-1.4375-2.6562-0.94922-0.5625-2.4375-0.84375-4.4688-0.84375-1.6367 0-3.1562 0.16797-4.5625 0.5-1.4062 0.32422-2.7188 0.8125-3.9375 1.4688v-5.8281c1.6445-0.40625 3.2891-0.70703 4.9375-0.90625 1.6562-0.20703 3.3047-0.3125 4.9531-0.3125 4.3203 0 7.4375 0.85547 9.3438 2.5625 1.9141 1.6992 2.875 4.4609 2.875 8.2812z"/>
  </symbol>
  <symbol id="h" overflow="visible">
   <path fill="currentColor" d="m12.031-30.719v6.7969h7.875v5.4688h-7.875v10.141c0 1.1172 0.21875 1.8711 0.65625 2.2656 0.4375 0.38672 1.3125 0.57812 2.625 0.57812h3.9375v5.4688h-6.5625c-3.0234 0-5.1641-0.62891-6.4219-1.8906-1.2617-1.2578-1.8906-3.3984-1.8906-6.4219v-10.141h-3.7969v-5.4688h3.7969v-6.7969z"/>
  </symbol>
  <symbol id="g" overflow="visible">
   <path fill="currentColor" d="m19.953-20.422v-12.812h7.6875v33.234h-7.6875v-3.4531c-1.0547 1.4062-2.2148 2.4375-3.4844 3.0938-1.2734 0.65625-2.7422 0.98438-4.4062 0.98438-2.9492 0-5.3711-1.1719-7.2656-3.5156-1.8867-2.3438-2.8281-5.3594-2.8281-9.0469s0.94141-6.7031 2.8281-9.0469c1.8945-2.3438 4.3164-3.5156 7.2656-3.5156 1.6562 0 3.1172 0.33594 4.3906 1 1.2812 0.65625 2.4453 1.6836 3.5 3.0781zm-5.0469 15.484c1.6445 0 2.8945-0.59766 3.75-1.7969 0.86328-1.1953 1.2969-2.9297 1.2969-5.2031 0-2.2812-0.43359-4.0195-1.2969-5.2188-0.85547-1.1953-2.1055-1.7969-3.75-1.7969-1.625 0-2.8711 0.60156-3.7344 1.7969-0.85547 1.1992-1.2812 2.9375-1.2812 5.2188 0 2.2734 0.42578 4.0078 1.2812 5.2031 0.86328 1.1992 2.1094 1.7969 3.7344 1.7969z"/>
  </symbol>
  <symbol id="f" overflow="visible">
   <path fill="currentColor" d="m16.406-4.9375c1.6328 0 2.8828-0.59766 3.75-1.7969 0.86328-1.1953 1.2969-2.9297 1.2969-5.2031 0-2.2812-0.43359-4.0195-1.2969-5.2188-0.86719-1.1953-2.1172-1.7969-3.75-1.7969-1.6367 0-2.8906 0.60547-3.7656 1.8125-0.875 1.1992-1.3125 2.9336-1.3125 5.2031 0 2.2617 0.4375 3.9961 1.3125 5.2031 0.875 1.1992 2.1289 1.7969 3.7656 1.7969zm-5.0781-15.484c1.0508-1.3945 2.2188-2.4219 3.5-3.0781 1.2812-0.66406 2.7539-1 4.4219-1 2.9453 0 5.3672 1.1719 7.2656 3.5156 1.8945 2.3438 2.8438 5.3594 2.8438 9.0469s-0.94922 6.7031-2.8438 9.0469c-1.8984 2.3438-4.3203 3.5156-7.2656 3.5156-1.668 0-3.1406-0.33594-4.4219-1s-2.4492-1.6914-3.5-3.0781v3.4531h-7.6562v-33.234h7.6562z"/>
  </symbol>
  <symbol id="e" overflow="visible">
   <path fill="currentColor" d="m0.53125-23.922h7.6562l6.4219 16.234 5.4688-16.234h7.6562l-10.062 26.188c-1.0117 2.6641-2.1953 4.5234-3.5469 5.5781-1.3438 1.0625-3.1211 1.5938-5.3281 1.5938h-4.4219v-5.0156h2.3906c1.3008 0 2.2422-0.21094 2.8281-0.625 0.59375-0.40625 1.0547-1.1484 1.3906-2.2188l0.20312-0.65625z"/>
  </symbol>
  <symbol id="a" overflow="visible">
   <path fill="currentColor" d="m4.0156-31.891h8.2188v25.672h14.453v6.2188h-22.672z"/>
  </symbol>
  <symbol id="o" overflow="visible">
   <path fill="currentColor" d="m4.0156-31.891h8.2188v19.109c0 2.6367 0.42969 4.5234 1.2969 5.6562 0.86328 1.1367 2.2695 1.7031 4.2188 1.7031 1.9688 0 3.3789-0.56641 4.2344-1.7031 0.86328-1.1328 1.2969-3.0195 1.2969-5.6562v-19.109h8.2344v19.109c0 4.5234-1.1367 7.8867-3.4062 10.094-2.2617 2.2109-5.7148 3.3125-10.359 3.3125-4.625 0-8.0742-1.1016-10.344-3.3125-2.2617-2.207-3.3906-5.5703-3.3906-10.094z"/>
  </symbol>
  <symbol id="n" overflow="visible">
   <path fill="currentColor" d="m0.21875-31.891h29.391v6.2188h-10.578v25.672h-8.2188v-25.672h-10.594z"/>
  </symbol>
  <symbol id="m" overflow="visible">
   <path fill="currentColor" d="m4.0156-31.891h22.203v6.2188h-13.984v5.9375h13.141v6.2188h-13.141v13.516h-8.2188z"/>
  </symbol>
  <symbol id="d" overflow="visible">
   <path fill="currentColor" d="m4.0156-31.891h8.2188v31.891h-8.2188z"/>
  </symbol>
  <symbol id="l" overflow="visible">
   <path fill="currentColor" d="m32.688-2.375c-2.0547 1-4.1836 1.75-6.3906 2.25-2.2109 0.5-4.4844 0.75-6.8281 0.75-5.3125 0-9.5273-1.4844-12.641-4.4531-3.1055-2.9688-4.6562-7-4.6562-12.094 0-5.1328 1.5781-9.1758 4.7344-12.125 3.1641-2.9453 7.5-4.4219 13-4.4219 2.125 0 4.1562 0.19922 6.0938 0.59375 1.9453 0.39844 3.7852 0.99219 5.5156 1.7812v6.5938c-1.7812-1.0078-3.5547-1.7656-5.3125-2.2656-1.7617-0.5-3.5273-0.75-5.2969-0.75-3.2734 0-5.793 0.91797-7.5625 2.75-1.7734 1.8359-2.6562 4.4492-2.6562 7.8438 0 3.375 0.85156 5.9844 2.5625 7.8281 1.707 1.8359 4.1328 2.75 7.2812 2.75 0.85156 0 1.6445-0.050781 2.375-0.15625 0.73828-0.10156 1.3984-0.26953 1.9844-0.5v-6.2031h-5.0312v-5.5h12.828z"/>
  </symbol>
  <symbol id="c" overflow="visible">
   <path fill="currentColor" d="m23.375-5.8125h-12.859l-2.0312 5.8125h-8.2656l11.812-31.891h9.7969l11.812 31.891h-8.2656zm-10.812-5.9219h8.7344l-4.3594-12.688z"/>
  </symbol>
  <symbol id="k" overflow="visible">
   <path fill="currentColor" d="m4.0156-31.891h9.1875l11.594 21.875v-21.875h7.7969v31.891h-9.1875l-11.594-21.875v21.875h-7.7969z"/>
  </symbol>
 </defs>
 <g>
  <path fill="currentColor" d="m518.7 157.5c4.3438 12.27 14.465 21.602 27.047 24.93 12.582 3.3281 25.996 0.22656 35.836-8.2891 9.8438-8.5156 14.84-21.344 13.355-34.273-1.4883-12.93-9.2656-24.289-20.785-30.348-11.52-6.0586-25.285-6.0352-36.785 0.0625-11.496 6.0977-19.238 17.484-20.68 30.418h-131.69c-4.832 0-8.75 3.918-8.75 8.75v73.852c-1.8906 0.55469-3.7344 1.2578-5.5117 2.0977-6.7969-11.598-17.551-20.355-30.281-24.66-12.734-4.3047-26.598-3.875-39.035 1.2188-12.441 5.0938-22.625 14.504-28.684 26.504-0.48828-0.12891-0.98438-0.21875-1.4883-0.26172h-26.25v-87.5c0-2.3203-0.92188-4.5469-2.5625-6.1875s-3.8672-2.5625-6.1875-2.5625h-62.477c-2.8633-11.094-10.977-20.082-21.715-24.066-10.742-3.9844-22.754-2.457-32.16 4.0859s-15.012 17.273-15.012 28.73 5.6055 22.188 15.012 28.73 21.418 8.0703 32.16 4.0859c10.738-3.9844 18.852-12.973 21.715-24.066h53.727v87.5c0 2.3203 0.92188 4.5469 2.5625 6.1875s3.8672 2.5625 6.1875 2.5625h31.148c-0.37891 2.5508-0.58594 5.1211-0.60938 7.6992-0.015624 2.7852 0.19141 5.5625 0.60938 8.3125-11.355 2.5859-21.492 8.957-28.746 18.07-7.25 9.1133-11.184 20.422-11.152 32.066 0.054688 4.2539 0.61328 8.4805 1.6641 12.602h-46.465c-2.8945-12.695-11.875-23.141-23.996-27.898-12.121-4.7617-25.812-3.2227-36.57 4.1133-10.762 7.3359-17.199 19.512-17.199 32.535s6.4375 25.199 17.199 32.535c10.758 7.3359 24.449 8.875 36.57 4.1133 12.121-4.7578 21.102-15.203 23.996-27.898h54.512c9.7461 13.66 25.484 21.773 42.266 21.789h61.773v32.289-0.003906c-9.4805 2.8281-17.008 10.059-20.219 19.414-3.207 9.3555-1.7031 19.684 4.0469 27.734 5.75 8.0469 15.031 12.824 24.922 12.824s19.172-4.7773 24.922-12.824c5.75-8.0508 7.2539-18.379 4.0469-27.734-3.2109-9.3555-10.738-16.586-20.219-19.414v-32.461h61.773c5.7812-0.011719 11.52-0.98828 16.977-2.8867v25.023c0 2.3203 0.92188 4.5469 2.5625 6.1875s3.8672 2.5625 6.1875 2.5625h79.977c2.8633 11.094 10.977 20.082 21.715 24.066 10.742 3.9844 22.754 2.457 32.16-4.0859s15.012-17.273 15.012-28.73-5.6055-22.188-15.012-28.73-21.418-8.0703-32.16-4.0859c-10.738 3.9844-18.852 12.973-21.715 24.066h-71.227v-26.25c11.141-9.7227 17.523-23.797 17.5-38.586-0.027344-7.8828-1.9141-15.648-5.5117-22.664h41.824c2.75 9.5352 9.9492 17.145 19.316 20.422 9.3672 3.2734 19.742 1.8086 27.832-3.9336 8.0938-5.7461 12.902-15.051 12.902-24.977 0-9.9219-4.8086-19.23-12.902-24.973-8.0898-5.7461-18.465-7.2109-27.832-3.9336-9.3672 3.2734-16.566 10.887-19.316 20.418-0.41797-0.21875-0.85938-0.39453-1.3125-0.52344h-51.977c-0.68359 0.066406-1.3594 0.21484-2.0117 0.4375-5.9141-5.0117-12.883-8.6328-20.387-10.586-0.81641-10.242-5.207-19.867-12.406-27.195-7.1992-7.3242-16.746-11.887-26.969-12.883v-63.523zm36.926-35c5.8008 0 11.367 2.3047 15.469 6.4062s6.4062 9.668 6.4062 15.469-2.3047 11.367-6.4062 15.469-9.668 6.4062-15.469 6.4062-11.367-2.3047-15.469-6.4062-6.4062-9.668-6.4062-15.469 2.3047-11.367 6.4062-15.469 9.668-6.4062 15.469-6.4062zm-415.62 35c-4.6406 0-9.0938-1.8438-12.375-5.125s-5.125-7.7344-5.125-12.375 1.8438-9.0938 5.125-12.375 7.7344-5.125 12.375-5.125 9.0938 1.8438 12.375 5.125 5.125 7.7344 5.125 12.375-1.8438 9.0938-5.125 12.375-7.7344 5.125-12.375 5.125zm4.375 196.88c-5.8008 0-11.367-2.3047-15.469-6.4062s-6.4062-9.668-6.4062-15.469 2.3047-11.367 6.4062-15.469 9.668-6.4062 15.469-6.4062 11.367 2.3047 15.469 6.4062 6.4062 9.668 6.4062 15.469-2.3047 11.367-6.4062 15.469-9.668 6.4062-15.469 6.4062zm218.75 70c0 5.3086-3.1992 10.094-8.1016 12.125-4.9062 2.0312-10.551 0.91016-14.305-2.8438s-4.875-9.3984-2.8438-14.305c2.0312-4.9023 6.8164-8.1016 12.125-8.1016 7.25 0 13.125 5.875 13.125 13.125zm196.88-56.875c4.6406 0 9.0938 1.8438 12.375 5.125s5.125 7.7344 5.125 12.375-1.8438 9.0938-5.125 12.375-7.7344 5.125-12.375 5.125-9.0938-1.8438-12.375-5.125-5.125-7.7344-5.125-12.375 1.8438-9.0938 5.125-12.375 7.7344-5.125 12.375-5.125zm-21.875-100.62c5.3086 0 10.094 3.1992 12.125 8.1016 2.0312 4.9062 0.91016 10.551-2.8438 14.305s-9.3984 4.875-14.305 2.8438c-4.9023-2.0312-8.1016-6.8164-8.1016-12.125 0-7.25 5.875-13.125 13.125-13.125zm-122.5-2.4492c0.042969 0.58203 0.042969 1.168 0 1.75v1.2266-0.003906c-0.30078 2.3867 0.39453 4.793 1.9258 6.6523 1.5039 1.8203 3.6797 2.957 6.0352 3.1484 11.922 0.84375 22.535 7.8633 27.973 18.504 5.4414 10.641 4.9219 23.352-1.375 33.512s-17.445 16.285-29.395 16.148h-141.31c-12.191 0.17188-23.551-6.1758-29.797-16.648-6.2422-10.469-6.4258-23.48-0.48047-34.125 5.9492-10.641 17.121-17.305 29.312-17.477 2.8164-0.082031 5.4219-1.5156 7-3.8516 1.5898-2.3047 1.9805-5.2344 1.0508-7.875-1.4883-4.0664-2.2578-8.3594-2.2734-12.688-0.0625-12.207 5.7148-23.711 15.539-30.957 9.8281-7.2461 22.523-9.3672 34.172-5.7031 11.645 3.6641 20.84 12.668 24.75 24.234 0.96094 2.7031 3.1836 4.7617 5.9492 5.5156 2.7383 0.75781 5.6758 0.13672 7.875-1.6641 5.1445-4.3633 11.773-6.5781 18.508-6.1836 6.7305 0.39453 13.055 3.3633 17.66 8.293 4.6016 4.9336 7.1289 11.445 7.0586 18.191z"/>
 </g>
</svg>
