<?xml version="1.0" encoding="UTF-8"?>
<svg width="700pt" height="700pt" version="1.1" viewBox="0 0 700 700" xmlns="http://www.w3.org/2000/svg" xmlns:xlink="http://www.w3.org/1999/xlink">
 <defs>
  <symbol id="u" overflow="visible">
   <path fill="currentColor" d="m19.547-1.1719c-1.0117 0.52344-2.0625 0.91406-3.1562 1.1719-1.0938 0.26953-2.2344 0.40625-3.4219 0.40625-3.543 0-6.3516-0.98828-8.4219-2.9688-2.0625-1.9766-3.0938-4.6602-3.0938-8.0469 0-3.4062 1.0312-6.0977 3.0938-8.0781 2.0703-1.9766 4.8789-2.9688 8.4219-2.9688 1.1875 0 2.3281 0.13672 3.4219 0.40625 1.0938 0.26172 2.1445 0.65625 3.1562 1.1875v4.3906c-1.0234-0.6875-2.0273-1.1914-3.0156-1.5156-0.98047-0.32031-2.0156-0.48438-3.1094-0.48438-1.9609 0-3.5 0.625-4.625 1.875-1.1172 1.25-1.6719 2.9805-1.6719 5.1875 0 2.1875 0.55469 3.9141 1.6719 5.1719 1.125 1.25 2.6641 1.875 4.625 1.875 1.0938 0 2.1289-0.16016 3.1094-0.48438 0.98828-0.32031 1.9922-0.82812 3.0156-1.5156z"/>
  </symbol>
  <symbol id="d" overflow="visible">
   <path fill="currentColor" d="m14.297-11.609c-0.44922-0.20703-0.89062-0.35938-1.3281-0.45312-0.4375-0.10156-0.88281-0.15625-1.3281-0.15625-1.3125 0-2.3242 0.42188-3.0312 1.2656-0.71094 0.83594-1.0625 2.0391-1.0625 3.6094v7.3438h-5.0938v-15.953h5.0938v2.625c0.65625-1.0508 1.4062-1.8164 2.25-2.2969 0.85156-0.47656 1.875-0.71875 3.0625-0.71875 0.17578 0 0.36328 0.011719 0.5625 0.03125 0.19531 0.011719 0.48438 0.042969 0.85938 0.09375z"/>
  </symbol>
  <symbol id="b" overflow="visible">
   <path fill="currentColor" d="m18.375-8.0156v1.4531h-11.922c0.125 1.1992 0.55469 2.0938 1.2969 2.6875 0.73828 0.59375 1.7734 0.89062 3.1094 0.89062 1.0703 0 2.1719-0.15625 3.2969-0.46875 1.125-0.32031 2.2812-0.80469 3.4688-1.4531v3.9375c-1.2109 0.46094-2.418 0.80469-3.625 1.0312-1.2109 0.22656-2.4141 0.34375-3.6094 0.34375-2.8984 0-5.1484-0.72656-6.75-2.1875-1.5938-1.4688-2.3906-3.5312-2.3906-6.1875 0-2.5938 0.78516-4.6328 2.3594-6.125 1.5703-1.5 3.7344-2.25 6.4844-2.25 2.5078 0 4.5156 0.75781 6.0156 2.2656 1.5078 1.5117 2.2656 3.5312 2.2656 6.0625zm-5.2344-1.7031c0-0.96875-0.28906-1.75-0.85938-2.3438-0.5625-0.59375-1.2969-0.89062-2.2031-0.89062-0.99219 0-1.7969 0.28125-2.4219 0.84375-0.61719 0.55469-0.99609 1.3516-1.1406 2.3906z"/>
  </symbol>
  <symbol id="j" overflow="visible">
   <path fill="currentColor" d="m9.5938-7.1719c-1.0625 0-1.8672 0.18359-2.4062 0.54688-0.53125 0.35547-0.79688 0.88281-0.79688 1.5781 0 0.64844 0.21094 1.1523 0.64062 1.5156 0.4375 0.36719 1.0391 0.54688 1.8125 0.54688 0.95703 0 1.7656-0.34375 2.4219-1.0312s0.98438-1.5469 0.98438-2.5781v-0.57812zm7.7969-1.9375v9.1094h-5.1406v-2.3594c-0.6875 0.96875-1.4609 1.6719-2.3125 2.1094-0.85547 0.4375-1.8906 0.65625-3.1094 0.65625-1.6562 0-3-0.47656-4.0312-1.4375-1.0312-0.96875-1.5469-2.2188-1.5469-3.75 0-1.875 0.64062-3.25 1.9219-4.125 1.2891-0.875 3.3164-1.3125 6.0781-1.3125h3v-0.39062c0-0.8125-0.32031-1.4062-0.95312-1.7812-0.63672-0.375-1.6328-0.5625-2.9844-0.5625-1.0859 0-2.1016 0.10938-3.0469 0.32812-0.9375 0.21875-1.8086 0.54688-2.6094 0.98438v-3.8906c1.082-0.25781 2.1758-0.45703 3.2812-0.59375 1.1016-0.14453 2.207-0.21875 3.3125-0.21875 2.875 0 4.9453 0.57031 6.2188 1.7031 1.2812 1.1367 1.9219 2.9805 1.9219 5.5312z"/>
  </symbol>
  <symbol id="a" overflow="visible">
   <path fill="currentColor" d="m8.0156-20.484v4.5312h5.2656v3.6406h-5.2656v6.7656c0 0.74219 0.14453 1.2461 0.4375 1.5156 0.30078 0.26172 0.89062 0.39062 1.7656 0.39062h2.6094v3.6406h-4.3594c-2.0234 0-3.4531-0.41406-4.2969-1.25-0.83594-0.84375-1.25-2.2734-1.25-4.2969v-6.7656h-2.5312v-3.6406h2.5312v-4.5312z"/>
  </symbol>
  <symbol id="i" overflow="visible">
   <path fill="currentColor" d="m13.297-13.625v-8.5312h5.1406v22.156h-5.1406v-2.3125c-0.69922 0.94922-1.4688 1.6406-2.3125 2.0781-0.84375 0.42578-1.8242 0.64062-2.9375 0.64062-1.9688 0-3.5859-0.77344-4.8438-2.3281-1.2617-1.5625-1.8906-3.5781-1.8906-6.0469 0-2.457 0.62891-4.4688 1.8906-6.0312 1.2578-1.5625 2.875-2.3438 4.8438-2.3438 1.1016 0 2.0781 0.22656 2.9219 0.67188 0.85156 0.4375 1.6289 1.1211 2.3281 2.0469zm-3.3594 10.328c1.0938 0 1.9258-0.39453 2.5-1.1875 0.57031-0.80078 0.85938-1.9609 0.85938-3.4844 0-1.5078-0.28906-2.6641-0.85938-3.4688-0.57422-0.80078-1.4062-1.2031-2.5-1.2031-1.0859 0-1.9141 0.40234-2.4844 1.2031-0.57422 0.80469-0.85938 1.9609-0.85938 3.4688 0 1.5234 0.28516 2.6836 0.85938 3.4844 0.57031 0.79297 1.3984 1.1875 2.4844 1.1875z"/>
  </symbol>
  <symbol id="h" overflow="visible">
   <path fill="currentColor" d="m10.938-3.2969c1.0938 0 1.9258-0.39453 2.5-1.1875 0.57031-0.80078 0.85938-1.9609 0.85938-3.4844 0-1.5078-0.28906-2.6641-0.85938-3.4688-0.57422-0.80078-1.4062-1.2031-2.5-1.2031s-1.9336 0.40234-2.5156 1.2031c-0.58594 0.80469-0.875 1.9609-0.875 3.4688 0 1.5117 0.28906 2.668 0.875 3.4688 0.58203 0.80469 1.4219 1.2031 2.5156 1.2031zm-3.3906-10.328c0.70703-0.92578 1.4883-1.6094 2.3438-2.0469 0.85156-0.44531 1.832-0.67188 2.9375-0.67188 1.9688 0 3.582 0.78125 4.8438 2.3438 1.2695 1.5625 1.9062 3.5742 1.9062 6.0312 0 2.4688-0.63672 4.4844-1.9062 6.0469-1.2617 1.5547-2.875 2.3281-4.8438 2.3281-1.1055 0-2.0859-0.21875-2.9375-0.65625-0.85547-0.4375-1.6367-1.125-2.3438-2.0625v2.3125h-5.0938v-22.156h5.0938z"/>
  </symbol>
  <symbol id="g" overflow="visible">
   <path fill="currentColor" d="m0.35938-15.953h5.0938l4.2969 10.828 3.6406-10.828h5.0938l-6.7031 17.469c-0.67969 1.7695-1.4648 3.0078-2.3594 3.7188-0.89844 0.70703-2.0781 1.0625-3.5469 1.0625h-2.9531v-3.3438h1.5938c0.86328 0 1.4922-0.14062 1.8906-0.42188 0.39453-0.27344 0.70312-0.76562 0.92188-1.4844l0.14062-0.4375z"/>
  </symbol>
  <symbol id="e" overflow="visible">
   <path fill="currentColor" d="m2.6719-21.266h9.1094c2.707 0 4.7852 0.60547 6.2344 1.8125 1.4453 1.1992 2.1719 2.9062 2.1719 5.125 0 2.2305-0.72656 3.9492-2.1719 5.1562-1.4492 1.1992-3.5273 1.7969-6.2344 1.7969h-3.625v7.375h-5.4844zm5.4844 3.9688v5.9375h3.0469c1.0625 0 1.8789-0.25391 2.4531-0.76562 0.58203-0.51953 0.875-1.2539 0.875-2.2031 0-0.94531-0.29297-1.6758-0.875-2.1875-0.57422-0.51953-1.3906-0.78125-2.4531-0.78125z"/>
  </symbol>
  <symbol id="f" overflow="visible">
   <path fill="currentColor" d="m2.2812-6.2031v-9.75h5.125v1.5938c0 0.86719-0.007812 1.9531-0.015625 3.2656-0.011719 1.3047-0.015625 2.1719-0.015625 2.6094 0 1.2812 0.03125 2.2031 0.09375 2.7656 0.070312 0.5625 0.1875 0.97656 0.34375 1.2344 0.21875 0.33594 0.49219 0.58984 0.82812 0.76562 0.33203 0.17969 0.71875 0.26562 1.1562 0.26562 1.0625 0 1.8945-0.40625 2.5-1.2188 0.61328-0.8125 0.92188-1.9453 0.92188-3.4062v-7.875h5.0938v15.953h-5.0938v-2.3125c-0.77344 0.9375-1.5898 1.625-2.4531 2.0625-0.85547 0.4375-1.7969 0.65625-2.8281 0.65625-1.8438 0-3.25-0.5625-4.2188-1.6875-0.96094-1.1328-1.4375-2.7734-1.4375-4.9219z"/>
  </symbol>
  <symbol id="t" overflow="visible">
   <path fill="currentColor" d="m14.906-15.453v3.875c-1.0859-0.45703-2.1367-0.80078-3.1562-1.0312-1.0117-0.22656-1.9688-0.34375-2.875-0.34375-0.96875 0-1.6875 0.125-2.1562 0.375-0.46875 0.24219-0.70312 0.60938-0.70312 1.1094 0 0.40625 0.17578 0.71875 0.53125 0.9375 0.35156 0.21875 0.99219 0.38281 1.9219 0.48438l0.89062 0.14062c2.6133 0.32422 4.3672 0.86719 5.2656 1.625 0.90625 0.76172 1.3594 1.9531 1.3594 3.5781 0 1.6992-0.63281 2.9766-1.8906 3.8281-1.25 0.85547-3.1211 1.2812-5.6094 1.2812-1.0547 0-2.1406-0.085938-3.2656-0.25-1.125-0.15625-2.2812-0.39844-3.4688-0.73438v-3.875c1.0195 0.49219 2.0625 0.85938 3.125 1.1094 1.0703 0.24219 2.1602 0.35938 3.2656 0.35938 0.98828 0 1.7344-0.13281 2.2344-0.40625 0.50781-0.26953 0.76562-0.67578 0.76562-1.2188 0-0.45703-0.17969-0.79688-0.53125-1.0156-0.34375-0.22656-1.0312-0.40625-2.0625-0.53125l-0.89062-0.10938c-2.2734-0.28125-3.8672-0.80469-4.7812-1.5781-0.90625-0.76953-1.3594-1.9414-1.3594-3.5156 0-1.6875 0.57812-2.9375 1.7344-3.75 1.1562-0.82031 2.9297-1.2344 5.3281-1.2344 0.9375 0 1.9219 0.074219 2.9531 0.21875 1.0391 0.14844 2.1641 0.37109 3.375 0.67188z"/>
  </symbol>
  <symbol id="s" overflow="visible">
   <path fill="currentColor" d="m7.5469-2.3125v8.375h-5.0938v-22.016h5.0938v2.3281c0.70703-0.92578 1.4883-1.6094 2.3438-2.0469 0.85156-0.44531 1.832-0.67188 2.9375-0.67188 1.9688 0 3.582 0.78125 4.8438 2.3438 1.2695 1.5625 1.9062 3.5742 1.9062 6.0312 0 2.4688-0.63672 4.4844-1.9062 6.0469-1.2617 1.5547-2.875 2.3281-4.8438 2.3281-1.1055 0-2.0859-0.21875-2.9375-0.65625-0.85547-0.4375-1.6367-1.125-2.3438-2.0625zm3.3906-10.328c-1.0938 0-1.9336 0.40234-2.5156 1.2031-0.58594 0.80469-0.875 1.9609-0.875 3.4688 0 1.5117 0.28906 2.668 0.875 3.4688 0.58203 0.80469 1.4219 1.2031 2.5156 1.2031s1.9258-0.39453 2.5-1.1875c0.57031-0.80078 0.85938-1.9609 0.85938-3.4844 0-1.5078-0.28906-2.6641-0.85938-3.4688-0.57422-0.80078-1.4062-1.2031-2.5-1.2031z"/>
  </symbol>
  <symbol id="r" overflow="visible">
   <path fill="currentColor" d="m2.4531-15.953h5.0938v15.953h-5.0938zm0-6.2031h5.0938v4.1562h-5.0938z"/>
  </symbol>
  <symbol id="c" overflow="visible">
   <path fill="currentColor" d="m10.047-12.688c-1.1367 0-2 0.40625-2.5938 1.2188s-0.89062 1.9805-0.89062 3.5c0 1.5312 0.29688 2.7031 0.89062 3.5156s1.457 1.2188 2.5938 1.2188c1.1016 0 1.9453-0.40625 2.5312-1.2188 0.59375-0.8125 0.89062-1.9844 0.89062-3.5156 0-1.5195-0.29688-2.6875-0.89062-3.5-0.58594-0.8125-1.4297-1.2188-2.5312-1.2188zm0-3.6562c2.7383 0 4.8789 0.74609 6.4219 2.2344 1.5391 1.4805 2.3125 3.5273 2.3125 6.1406 0 2.625-0.77344 4.6797-2.3125 6.1562-1.543 1.4805-3.6836 2.2188-6.4219 2.2188-2.7617 0-4.918-0.73828-6.4688-2.2188-1.5547-1.4766-2.3281-3.5312-2.3281-6.1562 0-2.6133 0.77344-4.6602 2.3281-6.1406 1.5508-1.4883 3.707-2.2344 6.4688-2.2344z"/>
  </symbol>
  <symbol id="q" overflow="visible">
   <path fill="currentColor" d="m12.953-22.156v3.3438h-2.8281c-0.71875 0-1.2266 0.13281-1.5156 0.39062-0.28125 0.26172-0.42188 0.71484-0.42188 1.3594v1.1094h4.3594v3.6406h-4.3594v12.312h-5.0938v-12.312h-2.5312v-3.6406h2.5312v-1.1094c0-1.7383 0.48438-3.0195 1.4531-3.8438 0.96875-0.83203 2.4688-1.25 4.5-1.25z"/>
  </symbol>
  <symbol id="p" overflow="visible">
   <path fill="currentColor" d="m17.234-13.297c0.64453-0.98828 1.4102-1.7422 2.2969-2.2656 0.89453-0.51953 1.875-0.78125 2.9375-0.78125 1.832 0 3.2266 0.57031 4.1875 1.7031 0.95703 1.125 1.4375 2.7656 1.4375 4.9219v9.7188h-5.125v-8.3125-0.39062c0.007812-0.13281 0.015625-0.32031 0.015625-0.5625 0-1.1328-0.16797-1.9531-0.5-2.4531-0.32422-0.50781-0.85938-0.76562-1.6094-0.76562-0.96875 0-1.7188 0.40234-2.25 1.2031-0.52344 0.79297-0.79297 1.9453-0.8125 3.4531v7.8281h-5.125v-8.3125c0-1.7695-0.15234-2.9062-0.45312-3.4062-0.30469-0.50781-0.84375-0.76562-1.625-0.76562-0.98047 0-1.7344 0.40234-2.2656 1.2031-0.53125 0.80469-0.79688 1.9492-0.79688 3.4375v7.8438h-5.125v-15.953h5.125v2.3281c0.625-0.89453 1.3438-1.5703 2.1562-2.0312 0.8125-0.45703 1.707-0.6875 2.6875-0.6875 1.1016 0 2.0781 0.26562 2.9219 0.79688s1.4844 1.2812 1.9219 2.25z"/>
  </symbol>
  <symbol id="o" overflow="visible">
   <path fill="currentColor" d="m18.484-9.7188v9.7188h-5.125v-7.4062c0-1.3945-0.03125-2.3516-0.09375-2.875-0.0625-0.51953-0.16797-0.90625-0.3125-1.1562-0.19922-0.33203-0.46875-0.58594-0.8125-0.76562-0.34375-0.1875-0.73438-0.28125-1.1719-0.28125-1.0625 0-1.9023 0.41406-2.5156 1.2344-0.60547 0.8125-0.90625 1.9492-0.90625 3.4062v7.8438h-5.0938v-22.156h5.0938v8.5312c0.76953-0.92578 1.5859-1.6094 2.4531-2.0469 0.86328-0.44531 1.8164-0.67188 2.8594-0.67188 1.8438 0 3.2383 0.57031 4.1875 1.7031 0.95703 1.125 1.4375 2.7656 1.4375 4.9219z"/>
  </symbol>
  <symbol id="n" overflow="visible">
   <path fill="currentColor" d="m2.6719-21.266h6.125l7.7344 14.578v-14.578h5.2031v21.266h-6.125l-7.7344-14.594v14.594h-5.2031z"/>
  </symbol>
  <symbol id="m" overflow="visible">
   <path fill="currentColor" d="m18.484-9.7188v9.7188h-5.125v-7.4375c0-1.375-0.03125-2.3203-0.09375-2.8438-0.0625-0.51953-0.16797-0.90625-0.3125-1.1562-0.19922-0.33203-0.46875-0.58594-0.8125-0.76562-0.34375-0.1875-0.73438-0.28125-1.1719-0.28125-1.0625 0-1.9023 0.41406-2.5156 1.2344-0.60547 0.8125-0.90625 1.9492-0.90625 3.4062v7.8438h-5.0938v-15.953h5.0938v2.3281c0.76953-0.92578 1.5859-1.6094 2.4531-2.0469 0.86328-0.44531 1.8164-0.67188 2.8594-0.67188 1.8438 0 3.2383 0.57031 4.1875 1.7031 0.95703 1.125 1.4375 2.7656 1.4375 4.9219z"/>
  </symbol>
  <symbol id="l" overflow="visible">
   <path fill="currentColor" d="m2.4531-15.953h5.0938v15.672c0 2.1328-0.51562 3.7656-1.5469 4.8906-1.0234 1.125-2.5078 1.6875-4.4531 1.6875h-2.5156v-3.3438h0.89062c0.96875 0 1.6289-0.21875 1.9844-0.65625 0.36328-0.4375 0.54688-1.2969 0.54688-2.5781zm0-6.2031h5.0938v4.1562h-5.0938z"/>
  </symbol>
  <symbol id="k" overflow="visible">
   <path fill="currentColor" d="m15.344-15.453v4.1562c-0.69922-0.46875-1.3984-0.81641-2.0938-1.0469-0.69922-0.22656-1.4219-0.34375-2.1719-0.34375-1.4297 0-2.5391 0.41797-3.3281 1.25-0.79297 0.82422-1.1875 1.9805-1.1875 3.4688 0 1.5 0.39453 2.668 1.1875 3.5 0.78906 0.82422 1.8984 1.2344 3.3281 1.2344 0.80078 0 1.5547-0.11719 2.2656-0.35938 0.71875-0.23828 1.3828-0.58594 2-1.0469v4.1719c-0.80469 0.29297-1.6172 0.50781-2.4375 0.65625-0.8125 0.14453-1.6367 0.21875-2.4688 0.21875-2.875 0-5.125-0.73438-6.75-2.2031-1.625-1.4766-2.4375-3.5352-2.4375-6.1719 0-2.625 0.8125-4.6758 2.4375-6.1562 1.625-1.4766 3.875-2.2188 6.75-2.2188 0.83203 0 1.6562 0.078125 2.4688 0.23438 0.8125 0.14844 1.625 0.36719 2.4375 0.65625z"/>
  </symbol>
 </defs>
 <g>
  <path fill="currentColor" d="m411.34 405.98-65.461 19.203c-0.003906-0.011719-0.015625-0.027344-0.023438-0.039063-4.082-7.0742-10.656-12.129-18.504-14.234l-47.438-12.711c-35.086-24.449-54.934-17.773-83.242-3.9336-12.379 6.0508-24.949 12.039-36.289 17.406l-1.6211-3.8867c-3.9531-9.4922-14.891-14.012-24.391-10.062l-25.848 10.734c-4.625 1.918-8.2188 5.5117-10.113 10.113-1.8945 4.6016-1.8828 9.6836 0.039062 14.305l43.766 105.09c2.9805 7.1641 9.9414 11.484 17.262 11.484 2.3789 0 4.8008-0.46094 7.1328-1.4297l25.848-10.734c4.625-1.918 8.2188-5.5117 10.113-10.113 1.8945-4.5977 1.8828-9.6758-0.039062-14.305l-2.0547-4.9336 14.793-7.1914c5.6719-2.7539 11.125-3.2188 17.18-1.4648l53.762 15.609c4.1992 1.2188 8.5234 1.7383 12.887 1.7383 14.719 0 29.93-5.9219 42.73-10.902 1.1094-0.43359 2.1914-0.85156 3.2539-1.2617l100.89-38.879c17.465-6.7305 28.234-28.039 22.586-44.707-2.2891-6.75-13.191-27.82-57.223-14.898zm-222.88 115.38c-0.33984 0.82812-0.99609 1.4766-1.8555 1.832l-25.848 10.734c-1.7266 0.72266-3.7148-0.10547-4.4336-1.832l-43.766-105.09c-0.35547-0.85938-0.36719-1.7852-0.023438-2.6094 0.33984-0.82812 0.99609-1.4766 1.8555-1.832l25.848-10.734c0.42578-0.17578 0.86328-0.26172 1.2969-0.26172 1.3281 0 2.5977 0.78906 3.1367 2.0898l43.766 105.09c0.35156 0.85938 0.36328 1.7852 0.023437 2.6133zm252.02-70.012-100.89 38.879c-1.0781 0.41406-2.1836 0.84766-3.3008 1.2852-14.441 5.625-32.414 12.617-45.82 8.7266l-53.762-15.609c-9.6289-2.793-19.094-1.9961-28.117 2.3984l-13.996 6.8086-28.332-68.035c11.555-5.4648 24.43-11.598 37.117-17.805 25.562-12.5 39.164-17.57 68.832 3.4648 0.74219 0.52344 1.5625 0.91406 2.4375 1.1484l48.742 13.062c3.9102 1.0508 7.1875 3.5742 9.2266 7.1172 2.043 3.5391 2.5977 7.6406 1.5469 11.551-1.043 3.9102-3.5742 7.1875-7.1172 9.2266-3.5391 2.043-7.6406 2.5977-11.551 1.5469l-64.777-17.359c-4.0703-1.0859-8.2617 1.3242-9.3516 5.4023-1.0898 4.0781 1.3242 8.2617 5.4023 9.3516l64.777 17.359c7.8516 2.1055 16.066 1.0078 23.141-3.0742 7.0742-4.082 12.129-10.656 14.227-18.504 0.74219-2.7695 1.0859-5.5898 1.043-8.3828l65.672-19.266c20.906-6.1289 35.285-4.207 38.461 5.1641 2.7461 8.0742-2.9961 21.453-13.605 25.543zm161.07-324.22-43.762-105.09c-3.9531-9.4922-14.898-14.004-24.391-10.062l-25.848 10.734c-4.625 1.918-8.2188 5.5117-10.113 10.113-1.8945 4.6016-1.8828 9.6758 0.039062 14.305l2.0547 4.9336-14.793 7.1914c-5.6641 2.7539-11.125 3.2188-17.172 1.4648l-53.762-15.609c-18.371-5.332-39.023 2.6992-55.613 9.1602-1.1094 0.43359-2.1914 0.85156-3.2539 1.2656l-100.89 38.879c-17.473 6.7305-28.234 28.039-22.586 44.707 2.2852 6.7656 13.188 27.832 57.219 14.914l65.461-19.203c0.003907 0.011719 0.015626 0.027343 0.023438 0.039062 4.082 7.0742 10.656 12.129 18.504 14.227l47.438 12.711c16.922 11.789 30.297 16.344 42.793 16.344 13.406 0 25.797-5.2461 40.453-12.414 12.348-6.0391 24.609-11.883 36.289-17.406l1.6172 3.8867c2.9805 7.1641 9.9414 11.492 17.262 11.492 2.3789 0 4.8008-0.46094 7.1328-1.4219l25.848-10.734c4.625-1.918 8.2188-5.5117 10.113-10.113 1.8828-4.6016 1.8711-9.6836-0.058594-14.309zm-104.93 24.887c-25.562 12.5-39.164 17.574-68.832-3.4648-0.74219-0.52344-1.5625-0.91016-2.4375-1.1484l-48.75-13.059c-3.9102-1.043-7.1875-3.5742-9.2266-7.1172-2.043-3.5391-2.5977-7.6406-1.5469-11.551s3.5742-7.1875 7.1172-9.2266c3.5391-2.043 7.6406-2.5977 11.551-1.5469l64.777 17.359c4.0664 1.0898 8.2617-1.3242 9.3516-5.4023 1.0898-4.0703-1.3242-8.2617-5.4023-9.3516l-64.781-17.355c-7.8477-2.1055-16.066-1.0078-23.141 3.0742-7.0742 4.082-12.129 10.656-14.234 18.504-0.74219 2.7695-1.0859 5.5898-1.043 8.3828l-65.672 19.266c-20.906 6.1289-35.285 4.207-38.453-5.1641-2.7422-8.0859 3.0039-21.465 13.613-25.555l100.89-38.879c1.0781-0.41406 2.1836-0.84766 3.3086-1.2852 14.441-5.625 32.414-12.617 45.82-8.7266l53.762 15.609c9.6289 2.793 19.094 1.9883 28.109-2.3984l14-6.8086 28.332 68.035c-11.918 5.6445-24.461 11.625-37.117 17.809zm90.848-16.402c-0.33984 0.82812-0.99609 1.4766-1.8555 1.832l-25.848 10.734c-1.7266 0.71875-3.7148-0.10547-4.4336-1.832l-43.762-105.1c-0.35547-0.85938-0.36328-1.7773-0.023437-2.6094 0.33984-0.82812 0.99609-1.4766 1.8555-1.832l25.848-10.734c1.7266-0.71875 3.7148 0.10547 4.4336 1.832l43.762 105.1c0.35547 0.85156 0.36719 1.7773 0.023438 2.6094zm-232.88 27.66c-50.184 0-91.016 40.828-91.016 91.016 0 23.695 9.1133 45.297 24 61.508l-22.168 38.391c-1.5 2.6016-1.3398 5.8398 0.41406 8.2734 1.75 2.4375 4.7734 3.6211 7.7109 3.0273l27.188-5.4883 8.8438 26.289c0.95703 2.8477 3.4961 4.8633 6.4805 5.1641 0.25781 0.023437 0.50781 0.039062 0.76562 0.039062 2.707 0 5.2383-1.4414 6.6094-3.8203l24.617-42.629c2.1719 0.15625 4.3516 0.26172 6.5625 0.26172 2.2109 0 4.3906-0.10547 6.5625-0.26172l24.609 42.629c1.3711 2.3789 3.9023 3.8203 6.6094 3.8203 0.25 0 0.50781-0.011719 0.76562-0.039062 2.9883-0.29688 5.5234-2.3164 6.4805-5.1641l8.8438-26.289 27.188 5.4883c2.9414 0.59375 5.9609-0.58984 7.7109-3.0273s1.9141-5.6758 0.41406-8.2734l-22.168-38.391c14.891-16.211 24-37.812 24-61.508-0.003906-50.184-40.832-91.016-91.023-91.016zm-35.945 202.12-5.5938-16.637c-1.2266-3.6445-4.9766-5.8164-8.75-5.0508l-17.207 3.4727 12.012-20.809c9.6016 7.4102 20.707 12.961 32.785 16.078zm-39.793-111.1c0-41.766 33.98-75.746 75.746-75.746s75.746 33.98 75.746 75.746-33.98 75.746-75.746 75.746c-41.77 0-75.746-33.977-75.746-75.746zm126.03 89.414c-3.7695-0.76562-7.5195 1.4062-8.75 5.0508l-5.5938 16.637-13.246-22.949c12.082-3.1133 23.184-8.668 32.785-16.078l12.012 20.809zm-50.289-147.31c-31.926 0-57.902 25.977-57.902 57.902 0 31.926 25.977 57.902 57.902 57.902 31.926 0 57.902-25.977 57.902-57.902 0.007812-31.93-25.969-57.902-57.902-57.902zm0 100.53c-23.508 0-42.629-19.121-42.629-42.629 0-23.508 19.121-42.629 42.629-42.629 23.508 0 42.629 19.121 42.629 42.629 0.003906 23.508-19.121 42.629-42.629 42.629zm26.008-63.125c2.9805 2.9805 2.9805 7.8164 0 10.805l-32.219 32.219c-1.4336 1.4336-3.3789 2.2344-5.4023 2.2344h-0.12891c-2.0703-0.035156-4.0352-0.91016-5.4492-2.4219l-14.422-15.43c-2.8828-3.0781-2.7188-7.9141 0.36719-10.793 3.0781-2.8828 7.9141-2.7188 10.793 0.36719l9.0234 9.6523 26.637-26.637c2.9805-2.9766 7.8125-2.9766 10.801 0.003907z"/>  
 </g>
</svg>
