<svg width="24" height="24" viewBox="0 0 24 24" fill="none" xmlns="http://www.w3.org/2000/svg">
<path d="M0 4.125C0 2.676 1.176 1.5 2.625 1.5H21.375C22.824 1.5 24 2.676 24 4.125V19.875C24 20.5712 23.7234 21.2389 23.2312 21.7312C22.7389 22.2234 22.0712 22.5 21.375 22.5H2.625C1.92881 22.5 1.26113 22.2234 0.768845 21.7312C0.276562 21.2389 0 20.5712 0 19.875L0 4.125ZM2.625 3.75C2.52554 3.75 2.43016 3.78951 2.35984 3.85984C2.28951 3.93016 2.25 4.02554 2.25 4.125V19.875C2.25 20.082 2.418 20.25 2.625 20.25H21.375C21.4745 20.25 21.5698 20.2105 21.6402 20.1402C21.7105 20.0698 21.75 19.9745 21.75 19.875V4.125C21.75 4.02554 21.7105 3.93016 21.6402 3.85984C21.5698 3.78951 21.4745 3.75 21.375 3.75H2.625ZM10.875 12C10.8747 12.2983 10.756 12.5842 10.545 12.795L7.17 16.17C7.03249 16.3181 6.85759 16.4263 6.66372 16.4834C6.46984 16.5404 6.26418 16.5441 6.06839 16.494C5.87261 16.4439 5.69395 16.342 5.55124 16.1989C5.40853 16.0558 5.30705 15.8769 5.2575 15.681C5.20754 15.4854 5.21112 15.28 5.26786 15.0863C5.3246 14.8926 5.43242 14.7177 5.58 14.58L8.16 12L5.58 9.42C5.43191 9.28249 5.32366 9.10759 5.26663 8.91372C5.20961 8.71984 5.20594 8.51418 5.256 8.31839C5.30606 8.12261 5.408 7.94395 5.55108 7.80124C5.69416 7.65853 5.87308 7.55705 6.069 7.5075C6.26457 7.45754 6.46998 7.46112 6.6637 7.51786C6.85741 7.5746 7.03229 7.68241 7.17 7.83L10.545 11.205C10.7565 11.415 10.875 11.7015 10.875 12ZM13.125 14.25H17.625C17.9234 14.25 18.2095 14.3685 18.4205 14.5795C18.6315 14.7905 18.75 15.0766 18.75 15.375C18.75 15.6734 18.6315 15.9595 18.4205 16.1705C18.2095 16.3815 17.9234 16.5 17.625 16.5H13.125C12.8266 16.5 12.5405 16.3815 12.3295 16.1705C12.1185 15.9595 12 15.6734 12 15.375C12 15.0766 12.1185 14.7905 12.3295 14.5795C12.5405 14.3685 12.8266 14.25 13.125 14.25Z" fill="#F5F5F5"/>
</svg>
