<svg width="512" height="512" viewBox="0 0 512 512" fill="none" xmlns="http://www.w3.org/2000/svg">
<path d="M196.487 269.383L272.381 222.377H311.745C312.96 222.377 314.049 223.335 314.049 224.671C314.049 225.755 313.568 226.234 312.96 226.612L275.672 248.867C273.242 250.304 272.406 253.203 272.406 255.37L272.381 269.383H319.745V187.899C319.745 186.336 318.53 185 316.707 185H271.545L195.829 231.804V269.408H196.487V269.383Z" fill="#111111"/>
<path d="M141.934 296.151L130.34 326.219H138.314L140.34 320.573H153.275L155.275 326.219H163.503L151.757 296.151H141.934ZM142.618 314.196L146.845 302.401L150.997 314.196H142.618Z" fill="#111111"/>
<path d="M185.299 314.65C185.299 318.557 182.894 320.145 178.767 320.145C174.768 320.145 172.16 318.481 172.16 314.65V296.05H164.465V315.507C164.465 324.203 172.237 326.899 178.767 326.899C185.273 326.899 192.994 324.203 192.994 315.507V296.05H185.299V314.65Z" fill="#111111"/>
<path d="M196.512 302.653H206.259V326.219H213.955V302.653H223.676V296.151H196.512V302.653Z" fill="#111111"/>
<path d="M276.634 296.151H262.509V326.219H276.634C287.468 326.219 290.456 322.186 290.456 310.971C290.456 300.385 287.57 296.151 276.634 296.151ZM276.33 319.716H270.204V302.653H276.33C281.166 302.653 282.608 303.963 282.608 310.971C282.583 317.347 280.963 319.716 276.33 319.716Z" fill="#111111"/>
<path d="M382.627 296.151H373.463L362.476 308.374V296.151H354.78L354.806 326.219H362.476V314.801L372.906 326.219H382.627L368.602 311.373L382.627 296.151Z" fill="#111111"/>
<path d="M294.76 326.219H319.062V319.716H302.455V314.272H315.821V307.719H302.455V302.653H319.062V296.151H294.76V326.219Z" fill="#111111"/>
<path d="M241.598 295.319C230.612 295.319 224.916 302.048 224.916 311.096C224.916 320.195 230.612 326.95 241.598 326.95C252.61 326.95 258.331 320.195 258.331 311.096C258.331 302.048 252.61 295.319 241.598 295.319ZM241.598 320.195C235.902 320.195 232.764 316.742 232.764 311.096C232.764 305.576 235.902 302.073 241.598 302.073C247.344 302.073 250.433 305.576 250.433 311.096C250.433 316.742 247.344 320.195 241.598 320.195Z" fill="#111111"/>
<path d="M342.35 308.526L335.338 307.744C331.212 307.29 330.2 306.282 330.2 304.896C330.2 303.358 332.326 301.973 336.427 301.973C340.402 301.973 342.478 303.434 342.857 305.652H350.4C350.021 299.3 344.654 295.344 336.858 295.344C327.567 295.344 322.884 299.023 322.884 305.526C322.884 310.819 325.972 313.314 332.402 313.994L339.541 314.751C342.249 315.054 343.515 316.112 343.515 317.447C343.515 318.985 341.693 320.371 337.313 320.371C332.25 320.371 330.225 319.085 329.871 316.54H322.478C322.808 323.447 327.339 327 337.06 327C345.92 327 350.882 323.118 350.882 317.296C350.857 312.205 347.894 309.155 342.35 308.526Z" fill="#111111"/>
</svg>
