<svg width="512" height="512" viewBox="0 0 512 512" fill="none" xmlns="http://www.w3.org/2000/svg">
<path d="M261.961 263.079C261.961 284.98 280.056 301 303.045 301C326.033 301 344.149 284.98 344.149 263.079V212.763H321.889V260.485C321.889 272.307 313.72 280.268 302.985 280.268C292.251 280.268 284.082 272.347 284.082 260.485V212.763H261.823L261.961 263.079ZM403.621 232.901H430.181V299.339H452.439V232.901H479V212.723H403.619L403.621 232.901ZM389.236 212.723H366.978V299.336H389.236V212.723ZM172.037 232.901H198.597V299.339H220.856V232.901H247.396V212.723H172.037V232.901ZM55.2588 212.723H33V299.336H55.2588V212.723ZM160.315 248.901C160.315 227 142.22 211 119.212 211C96.2031 211 78.1082 227 78.1082 248.901V299.336H100.367V251.613C100.367 239.792 108.537 231.831 119.271 231.831C130.006 231.831 138.175 239.752 138.175 251.613V299.336H160.434L160.296 248.901H160.315Z" fill="#E1E1E1" fill-opacity="0.882353"/>
</svg>
