<svg width="512" height="512" viewBox="0 0 512 512" fill="none" xmlns="http://www.w3.org/2000/svg">
<path fill-rule="evenodd" clip-rule="evenodd" d="M127.321 199.499C104.806 225.828 83.2182 258.478 83.0018 282.883C82.9174 292.066 85.8614 300.082 92.9228 306.154C103.085 314.898 114.283 317.982 125.425 318C141.708 318.023 157.877 311.481 170.537 306.437C191.858 297.947 427.542 196.032 427.542 196.032C429.816 194.897 429.39 193.484 426.544 194.189C425.396 194.475 169.965 263.404 169.965 263.404C165.127 264.767 160.127 265.479 155.099 265.523C135.469 265.639 118.001 254.789 118.143 231.924C118.197 222.978 120.948 212.189 127.321 199.499Z" fill="#111111"/>
</svg>
