<svg width="512" height="512" viewBox="0 0 512 512" fill="none" xmlns="http://www.w3.org/2000/svg">
<path d="M113.744 240.953C113.744 247.867 108.13 253.56 101.313 253.56C94.496 253.56 88.882 247.867 88.882 240.953C88.882 234.04 94.496 228.347 101.313 228.347C108.13 228.347 113.744 234.04 113.744 240.953ZM101.313 258.44C94.496 258.44 88.882 264.133 88.882 271.047C88.882 277.96 94.496 283.653 101.313 283.653C108.13 283.653 113.744 277.96 113.744 271.047C113.744 264.133 108.13 258.44 101.313 258.44ZM176.3 256C176.3 289.753 149.433 317 116.15 317C82.867 317 56 289.753 56 256C56 222.247 82.867 195 116.15 195C149.433 195 176.3 222.247 176.3 256ZM160.26 256C160.26 231.193 140.611 211.267 116.15 211.267C91.689 211.267 72.04 231.193 72.04 256C72.04 280.807 91.689 300.733 116.15 300.733C140.611 300.733 160.26 280.807 160.26 256ZM130.987 258.44C124.17 258.44 118.556 264.133 118.556 271.047C118.556 277.96 124.17 283.653 130.987 283.653C137.804 283.653 143.418 277.96 143.418 271.047C143.418 264.133 137.804 258.44 130.987 258.44ZM130.987 228.347C124.17 228.347 118.556 234.04 118.556 240.953C118.556 247.867 124.17 253.56 130.987 253.56C137.804 253.56 143.418 247.867 143.418 240.953C143.418 234.04 137.804 228.347 130.987 228.347ZM337.903 218.993C338.304 218.993 338.705 219.4 339.106 219.807V232.82C339.106 233.633 338.304 234.04 337.903 234.04H316.65C315.848 234.04 315.447 233.227 315.447 232.82V220.213C315.447 219.4 316.249 218.993 316.65 218.993H337.903ZM337.502 237.293H296.6C296.199 237.293 295.397 237.7 295.397 238.513L290.184 258.847L289.783 260.067L283.367 238.513C283.367 238.107 282.565 237.293 282.164 237.293H266.124C265.723 237.293 264.921 237.7 264.921 238.513L258.906 258.847L258.505 260.067L258.104 258.847L255.698 248.68L253.292 238.513C253.292 238.107 252.49 237.293 252.089 237.293H220.009V219.807C220.009 219.4 219.207 218.587 218.405 218.993L198.355 225.5C197.553 225.5 197.152 225.907 197.152 226.72V237.7H191.939C191.538 237.7 190.736 238.107 190.736 238.92V254.373C190.736 254.78 191.137 255.593 191.939 255.593H197.152V274.707C197.152 288.127 204.37 294.227 217.603 294.227C223.217 294.227 228.43 293.007 232.039 290.973V274.707C232.039 273.893 231.237 273.487 230.836 273.893C228.831 274.707 226.826 275.113 225.222 275.113C221.613 275.113 219.608 273.487 219.608 269.42V255.593H231.237C231.638 255.593 232.44 255.187 232.44 254.373V241.36L247.678 292.6C247.678 293.007 248.48 293.82 248.881 293.82H265.723C266.124 293.82 266.926 293.413 266.926 292.6L274.144 269.827L277.753 281.62L280.961 292.6C280.961 293.007 281.763 293.82 282.164 293.82H299.006C299.407 293.82 300.209 293.413 300.209 292.6L315.447 241.36V292.6C315.447 293.007 315.848 293.82 316.65 293.82H337.101C337.502 293.82 338.304 293.413 338.304 292.6V238.513C338.304 238.107 337.903 237.293 337.502 237.293ZM364.369 218.993H343.918C343.517 218.993 342.715 219.4 342.715 220.213V292.193C342.715 292.6 343.116 293.413 343.918 293.413H364.369C364.77 293.413 365.572 293.007 365.572 292.193V219.807C365.572 219.4 365.171 218.993 364.369 218.993ZM391.637 218.993H370.384C369.983 218.993 369.181 219.4 369.181 220.213V232.82C369.181 233.227 369.582 234.04 370.384 234.04H391.637C392.038 234.04 392.84 233.633 392.84 232.82V219.807C392.84 219.4 392.439 218.993 391.637 218.993ZM391.236 237.293H370.785C370.384 237.293 369.582 237.7 369.582 238.513V291.787C369.582 292.193 369.983 293.007 370.785 293.007H391.236C391.637 293.007 392.439 292.6 392.439 291.787V238.513C392.439 238.107 392.038 237.293 391.236 237.293ZM455.797 264.947C455.797 280.4 442.965 293.82 424.92 293.82C407.276 293.82 394.444 280.4 394.444 264.947C394.444 249.493 407.276 236.073 425.321 236.073C442.965 236.073 455.797 249.493 455.797 264.947ZM434.143 265.353C434.143 259.66 430.133 255.187 425.321 255.593C420.108 255.593 416.499 260.067 416.499 265.353C416.499 270.64 420.509 275.113 425.321 275.113C430.534 275.113 434.143 270.64 434.143 265.353Z" fill="#E1E1E1"/>
</svg>
