<svg width="96" height="96" viewBox="0 0 96 96" fill="none" xmlns="http://www.w3.org/2000/svg">
<path d="M83.5759 54.212C84.0496 55.1605 84.1273 56.2583 83.7921 57.2641C83.4568 58.2699 82.7359 59.1014 81.7879 59.576L49.7879 75.576C49.2327 75.8534 48.6205 75.9979 47.9999 75.9979C47.3792 75.9979 46.7671 75.8534 46.2119 75.576L14.2119 59.576C13.297 59.0826 12.61 58.2525 12.2966 57.2614C11.9832 56.2703 12.0679 55.1961 12.5327 54.2664C12.9976 53.3367 13.8061 52.6245 14.787 52.2805C15.768 51.9366 16.8442 51.9881 17.7879 52.424L47.9999 67.52L78.2159 52.42C79.1644 51.9463 80.2621 51.8686 81.2679 52.2038C82.2737 52.5391 83.1053 53.26 83.5799 54.208M48.0319 20C48.1812 20 48.3292 20.0093 48.4759 20.028L48.9199 20.108L49.2639 20.204L49.3119 20.228L49.3599 20.236L49.4759 20.292L49.6759 20.368L49.7399 20.404L49.7879 20.424L81.7879 36.424C82.4514 36.7566 83.0093 37.2672 83.3992 37.8987C83.7891 38.5302 83.9956 39.2578 83.9956 40C83.9956 40.7422 83.7891 41.4698 83.3992 42.1013C83.0093 42.7328 82.4514 43.2434 81.7879 43.576L49.7879 59.576C49.2327 59.8534 48.6205 59.9979 47.9999 59.9979C47.3792 59.9979 46.7671 59.8534 46.2119 59.576L14.2119 43.576C13.5484 43.2434 12.9904 42.7328 12.6005 42.1013C12.2106 41.4698 12.0042 40.7422 12.0042 40C12.0042 39.2578 12.2106 38.5302 12.6005 37.8987C12.9904 37.2672 13.5484 36.7566 14.2119 36.424L46.2119 20.424L46.2559 20.404L46.3279 20.364L46.6399 20.236L46.6839 20.228L46.7359 20.204L47.0799 20.108L47.5199 20.028L47.7439 20.008L48.0319 20Z" fill="url(#paint0_linear_158_815)"/>
<defs>
<linearGradient id="paint0_linear_158_815" x1="48.0007" y1="20" x2="48.0007" y2="75.9979" gradientUnits="userSpaceOnUse">
<stop stop-color="#B9B9B9"/>
<stop offset="0.755"/>
</linearGradient>
</defs>
</svg>
