<svg width="82" height="96" viewBox="0 0 82 96" fill="none" xmlns="http://www.w3.org/2000/svg">
<path d="M71.3246 59.8477C71.7284 60.6562 71.7947 61.5919 71.5089 62.4493C71.2231 63.3066 70.6087 64.0154 69.8006 64.4199L42.5242 78.0581C42.051 78.2946 41.5292 78.4177 41.0001 78.4177C40.4711 78.4177 39.9493 78.2946 39.4761 78.0581L12.1997 64.4199C11.4199 63.9994 10.8343 63.2918 10.5672 62.447C10.3 61.6022 10.3722 60.6866 10.7684 59.8941C11.1647 59.1017 11.8538 58.4945 12.69 58.2014C13.5261 57.9083 14.4435 57.9521 15.2478 58.3237L41.0001 71.1913L66.7559 58.3203C67.5643 57.9165 68.5001 57.8502 69.3574 58.136C70.2147 58.4218 70.9235 59.0362 71.3281 59.8443M71.3281 46.2062C71.7318 47.0146 71.7981 47.9504 71.5123 48.8077C71.2265 49.665 70.6121 50.3738 69.804 50.7784L42.5276 64.4165C42.0544 64.653 41.5326 64.7761 41.0036 64.7761C40.4745 64.7761 39.9527 64.653 39.4795 64.4165L12.2031 50.7784C11.4233 50.3578 10.8377 49.6502 10.5706 48.8054C10.3034 47.9606 10.3756 47.045 10.7718 46.2526C11.1681 45.4601 11.8573 44.853 12.6934 44.5598C13.5295 44.2667 14.4469 44.3105 15.2513 44.6821L41.0001 57.5531L66.7559 44.6821C67.5643 44.2783 68.5001 44.2121 69.3574 44.4978C70.2147 44.7836 70.9235 45.3981 71.3281 46.2062ZM71.3281 32.568C71.7318 33.3765 71.7981 34.3122 71.5123 35.1695C71.2265 36.0268 70.6121 36.7356 69.804 37.1402L42.5276 50.7784C42.0544 51.0148 41.5326 51.1379 41.0036 51.1379C40.4745 51.1379 39.9527 51.0148 39.4795 50.7784L12.2031 37.1402C11.4233 36.7196 10.8377 36.012 10.5706 35.1672C10.3034 34.3225 10.3756 33.4069 10.7718 32.6144C11.1681 31.8219 11.8573 31.2148 12.6934 30.9216C13.5295 30.6285 14.4469 30.6723 15.2513 31.0439L41.0001 43.9149L66.7559 31.0439C67.5643 30.6401 68.5001 30.5739 69.3574 30.8596C70.2147 31.1454 70.9235 31.7599 71.3281 32.568ZM41.0274 3.40955C41.1547 3.40955 41.2809 3.4175 41.4059 3.43341L41.7843 3.5016L42.0776 3.58343L42.1185 3.60389L42.1594 3.61071L42.2583 3.65844L42.4287 3.72322L42.4833 3.75391L42.5242 3.77096L69.8006 17.4091C70.3662 17.6926 70.8417 18.1278 71.1741 18.6662C71.5064 19.2045 71.6824 19.8246 71.6824 20.4573C71.6824 21.0899 71.5064 21.7101 71.1741 22.2484C70.8417 22.7867 70.3662 23.2219 69.8006 23.5054L42.5242 37.1436C42.051 37.3801 41.5292 37.5032 41.0001 37.5032C40.4711 37.5032 39.9493 37.3801 39.4761 37.1436L12.1997 23.5054C11.6341 23.2219 11.1586 22.7867 10.8262 22.2484C10.4939 21.7101 10.3179 21.0899 10.3179 20.4573C10.3179 19.8246 10.4939 19.2045 10.8262 18.6662C11.1586 18.1278 11.6341 17.6926 12.1997 17.4091L39.4761 3.77096L39.5136 3.75391L39.575 3.71981L39.8409 3.61071L39.8784 3.60389L39.9227 3.58343L40.2159 3.5016L40.591 3.43341L40.7819 3.41636L41.0274 3.40955Z" fill="url(#paint0_linear_175_163)"/>
<g clip-path="url(#clip0_175_163)">
<path d="M26.8843 61.3079C25.5855 59.5708 23.1226 59.2135 21.3949 60.5194C19.6672 61.8253 19.3119 64.3015 20.6107 66.0386L25.2791 72.297C25.8673 73.0855 25.7815 74.1819 25.0953 74.8718L23.527 76.4487C22.706 77.2741 21.3704 77.2125 20.6352 76.3132L9.63199 63.0326V44.7503C9.63199 42.5697 7.87981 40.808 5.71102 40.808C3.54223 40.808 1.79004 42.5697 1.79004 44.7503V71.6564C1.79004 72.9992 2.2434 74.3051 3.07661 75.3523L15.832 91.8976C16.4447 92.6983 16.8613 93.61 17.1064 94.5709C17.3269 95.421 18.0989 96 18.9811 96H35.1183C36.1966 96 37.0788 95.113 37.0788 94.0288V80.2308C37.0788 76.8183 35.9761 73.5043 33.9421 70.7694L26.8843 61.3079ZM76.2886 40.808C74.1198 40.808 72.3676 42.5697 72.3676 44.7503V63.0326L61.3644 76.3132C60.6292 77.2002 59.2814 77.2618 58.4727 76.4487L56.9043 74.8718C56.2181 74.1819 56.1323 73.0855 56.7205 72.297L61.3889 66.0386C62.6877 64.3015 62.3324 61.8253 60.6047 60.5194C58.877 59.2135 56.4142 59.5708 55.1153 61.3079L48.0576 70.7694C46.0236 73.5043 44.9208 76.8183 44.9208 80.2308V94.0288C44.9208 95.113 45.803 96 46.8813 96H63.0185C63.8885 96 64.6727 95.421 64.8933 94.5709C65.1383 93.61 65.5549 92.6983 66.1676 91.8976L78.923 75.3523C79.7562 74.3051 80.2096 72.9992 80.2096 71.6564V44.7503C80.2096 42.5697 78.4574 40.808 76.2886 40.808Z" fill="url(#paint1_linear_175_163)"/>
</g>
<defs>
<linearGradient id="paint0_linear_175_163" x1="41.0026" y1="3.40955" x2="41.0026" y2="78.4177" gradientUnits="userSpaceOnUse">
<stop offset="0.245" stop-color="#F2F2F2"/>
<stop offset="0.635" stop-color="#767676"/>
</linearGradient>
<linearGradient id="paint1_linear_175_163" x1="40.9998" y1="40.808" x2="40.9998" y2="96" gradientUnits="userSpaceOnUse">
<stop stop-color="#F5F5F5"/>
<stop offset="1" stop-color="#434343"/>
</linearGradient>
<clipPath id="clip0_175_163">
<rect width="78.4195" height="63.0766" fill="white" transform="translate(1.79004 32.9234)"/>
</clipPath>
</defs>
</svg>
