<svg width="96" height="96" viewBox="0 0 96 96" fill="none" xmlns="http://www.w3.org/2000/svg">
<path d="M83.5761 70.212C84.0498 71.1605 84.1276 72.2583 83.7923 73.2641C83.457 74.2699 82.7362 75.1014 81.7881 75.576L49.7881 91.576C49.2329 91.8534 48.6208 91.9979 48.0001 91.9979C47.3795 91.9979 46.7673 91.8534 46.2121 91.576L14.2121 75.576C13.2972 75.0826 12.6103 74.2525 12.2969 73.2614C11.9834 72.2703 12.0681 71.1961 12.533 70.2664C12.9978 69.3367 13.8064 68.6245 14.7873 68.2805C15.7682 67.9366 16.8445 67.9881 17.7881 68.424L48.0001 83.52L78.2161 68.42C79.1646 67.9463 80.2624 67.8686 81.2682 68.2038C82.274 68.5391 83.1055 69.26 83.5801 70.208M83.5801 54.208C84.0538 55.1565 84.1316 56.2543 83.7963 57.2601C83.461 58.2659 82.7402 59.0974 81.7921 59.572L49.7921 75.572C49.2369 75.8494 48.6248 75.9939 48.0041 75.9939C47.3835 75.9939 46.7713 75.8494 46.2161 75.572L14.2161 59.572C13.3012 59.0786 12.6143 58.2485 12.3009 57.2574C11.9874 56.2663 12.0721 55.1922 12.537 54.2624C13.0018 53.3327 13.8104 52.6205 14.7913 52.2765C15.7722 51.9326 16.8485 51.9841 17.7921 52.42L48.0001 67.52L78.2161 52.42C79.1646 51.9463 80.2624 51.8686 81.2682 52.2038C82.274 52.5391 83.1055 53.26 83.5801 54.208ZM83.5801 38.208C84.0538 39.1565 84.1316 40.2543 83.7963 41.2601C83.461 42.2659 82.7402 43.0974 81.7921 43.572L49.7921 59.572C49.2369 59.8494 48.6248 59.9939 48.0041 59.9939C47.3835 59.9939 46.7713 59.8494 46.2161 59.572L14.2161 43.572C13.3012 43.0786 12.6143 42.2485 12.3009 41.2574C11.9874 40.2663 12.0721 39.1922 12.537 38.2624C13.0018 37.3327 13.8104 36.6205 14.7913 36.2765C15.7722 35.9326 16.8485 35.9841 17.7921 36.42L48.0001 51.52L78.2161 36.42C79.1646 35.9463 80.2624 35.8686 81.2682 36.2038C82.274 36.5391 83.1055 37.26 83.5801 38.208ZM48.0321 4C48.1815 4 48.3295 4.00933 48.4761 4.028L48.9201 4.108L49.2641 4.204L49.3121 4.228L49.3601 4.236L49.4761 4.292L49.6761 4.368L49.7401 4.404L49.7881 4.424L81.7881 20.424C82.4517 20.7566 83.0096 21.2672 83.3995 21.8987C83.7894 22.5302 83.9959 23.2578 83.9959 24C83.9959 24.7422 83.7894 25.4698 83.3995 26.1013C83.0096 26.7328 82.4517 27.2434 81.7881 27.576L49.7881 43.576C49.2329 43.8534 48.6208 43.9979 48.0001 43.9979C47.3795 43.9979 46.7673 43.8534 46.2121 43.576L14.2121 27.576C13.5486 27.2434 12.9907 26.7328 12.6008 26.1013C12.2109 25.4698 12.0044 24.7422 12.0044 24C12.0044 23.2578 12.2109 22.5302 12.6008 21.8987C12.9907 21.2672 13.5486 20.7566 14.2121 20.424L46.2121 4.424L46.2561 4.404L46.3281 4.364L46.6401 4.236L46.6841 4.228L46.7361 4.204L47.0801 4.108L47.5201 4.028L47.7441 4.008L48.0321 4Z" fill="url(#paint0_linear_175_147)"/>
<defs>
<linearGradient id="paint0_linear_175_147" x1="48.003" y1="4" x2="48.003" y2="91.9979" gradientUnits="userSpaceOnUse">
<stop offset="0.245" stop-color="#F2F2F2"/>
<stop offset="0.635" stop-color="#767676"/>
</linearGradient>
</defs>
</svg>
