<svg width="96" height="106" viewBox="0 0 96 106" fill="none" xmlns="http://www.w3.org/2000/svg">
<path d="M44.7636 36.8689C45.0268 37.3971 45.07 38.0084 44.8837 38.5684C44.6975 39.1285 44.297 39.5915 43.7703 39.8558L25.9918 48.7651C25.6833 48.9196 25.3432 49 24.9984 49C24.6536 49 24.3135 48.9196 24.005 48.7651L6.22657 39.8558C5.71826 39.5811 5.33662 39.1188 5.16249 38.5669C4.98835 38.0151 5.0354 37.4169 5.29367 36.8992C5.55194 36.3815 6.00113 35.9849 6.54611 35.7934C7.09109 35.602 7.68904 35.6306 8.21331 35.8733L24.9984 44.2793L41.7857 35.8711C42.3127 35.6073 42.9226 35.564 43.4814 35.7507C44.0402 35.9374 44.5022 36.3388 44.7659 36.8667M44.7659 27.9574C45.029 28.4856 45.0722 29.0968 44.886 29.6569C44.6997 30.2169 44.2992 30.68 43.7725 30.9443L25.994 39.8536C25.6856 40.008 25.3455 40.0885 25.0006 40.0885C24.6558 40.0885 24.3157 40.008 24.0073 39.8536L6.22879 30.9443C5.72048 30.6695 5.33884 30.2073 5.16471 29.6554C4.99058 29.1035 5.03763 28.5054 5.29589 27.9877C5.55416 27.47 6.00336 27.0734 6.54833 26.8819C7.09331 26.6904 7.69127 26.7191 8.21553 26.9618L24.9984 35.3699L41.7857 26.9618C42.3127 26.698 42.9226 26.6547 43.4814 26.8414C44.0402 27.0281 44.5022 27.4295 44.7659 27.9574ZM44.7659 19.0481C45.029 19.5763 45.0722 20.1875 44.886 20.7476C44.6997 21.3076 44.2992 21.7707 43.7725 22.0349L25.994 30.9443C25.6856 31.0987 25.3455 31.1792 25.0006 31.1792C24.6558 31.1792 24.3157 31.0987 24.0073 30.9443L6.22879 22.0349C5.72048 21.7602 5.33884 21.298 5.16471 20.7461C4.99058 20.1942 5.03763 19.5961 5.29589 19.0784C5.55416 18.5607 6.00336 18.1641 6.54833 17.9726C7.09331 17.7811 7.69127 17.8098 8.21553 18.0525L24.9984 26.4606L41.7857 18.0525C42.3127 17.7887 42.9226 17.7454 43.4814 17.9321C44.0402 18.1188 44.5022 18.5202 44.7659 19.0481ZM25.0162 0C25.0992 0 25.1814 0.00519703 25.2629 0.0155912L25.5095 0.0601377L25.7007 0.113594L25.7273 0.126958L25.754 0.131412L25.8184 0.162595L25.9296 0.204914L25.9651 0.22496L25.9918 0.236097L43.7703 9.1454C44.1389 9.33058 44.4489 9.6149 44.6655 9.96656C44.8821 10.3182 44.9968 10.7234 44.9968 11.1366C44.9968 11.5499 44.8821 11.955 44.6655 12.3067C44.4489 12.6584 44.1389 12.9427 43.7703 13.1279L25.9918 22.0372C25.6833 22.1917 25.3432 22.2721 24.9984 22.2721C24.6536 22.2721 24.3135 22.1917 24.005 22.0372L6.22657 13.1279C5.85793 12.9427 5.54796 12.6584 5.33134 12.3067C5.11473 11.955 5 11.5499 5 11.1366C5 10.7234 5.11473 10.3182 5.33134 9.96656C5.54796 9.6149 5.85793 9.33058 6.22657 9.1454L24.005 0.236097L24.0295 0.22496L24.0695 0.202687L24.2428 0.131412L24.2673 0.126958L24.2962 0.113594L24.4873 0.0601377L24.7317 0.0155912L24.8562 0.0044546L25.0162 0Z" fill="url(#paint0_linear_158_916)"/>
<path d="M94.7636 48.8689C95.0268 49.3971 95.07 50.0084 94.8837 50.5684C94.6975 51.1285 94.297 51.5915 93.7703 51.8558L75.9918 60.7651C75.6833 60.9196 75.3432 61 74.9984 61C74.6536 61 74.3135 60.9196 74.005 60.7651L56.2266 51.8558C55.7183 51.5811 55.3366 51.1188 55.1625 50.5669C54.9884 50.0151 55.0354 49.4169 55.2937 48.8992C55.5519 48.3815 56.0011 47.9849 56.5461 47.7934C57.0911 47.602 57.689 47.6306 58.2133 47.8733L74.9984 56.2793L91.7857 47.8711C92.3127 47.6073 92.9226 47.564 93.4814 47.7507C94.0402 47.9374 94.5022 48.3388 94.7659 48.8667M94.7659 39.9574C95.029 40.4856 95.0722 41.0968 94.886 41.6569C94.6997 42.2169 94.2992 42.68 93.7725 42.9443L75.994 51.8536C75.6856 52.008 75.3455 52.0885 75.0006 52.0885C74.6558 52.0885 74.3157 52.008 74.0073 51.8536L56.2288 42.9443C55.7205 42.6695 55.3388 42.2073 55.1647 41.6554C54.9906 41.1035 55.0376 40.5054 55.2959 39.9877C55.5542 39.47 56.0034 39.0734 56.5483 38.8819C57.0933 38.6904 57.6913 38.7191 58.2155 38.9618L74.9984 47.3699L91.7857 38.9618C92.3127 38.698 92.9226 38.6547 93.4814 38.8414C94.0402 39.0281 94.5022 39.4295 94.7659 39.9574ZM94.7659 31.0481C95.029 31.5763 95.0722 32.1875 94.886 32.7476C94.6997 33.3076 94.2992 33.7707 93.7725 34.0349L75.994 42.9443C75.6856 43.0987 75.3455 43.1792 75.0006 43.1792C74.6558 43.1792 74.3157 43.0987 74.0073 42.9443L56.2288 34.0349C55.7205 33.7602 55.3388 33.298 55.1647 32.7461C54.9906 32.1942 55.0376 31.5961 55.2959 31.0784C55.5542 30.5607 56.0034 30.1641 56.5483 29.9726C57.0933 29.7811 57.6913 29.8098 58.2155 30.0525L74.9984 38.4606L91.7857 30.0525C92.3127 29.7887 92.9226 29.7454 93.4814 29.9321C94.0402 30.1188 94.5022 30.5202 94.7659 31.0481ZM75.0162 12C75.0992 12 75.1814 12.0052 75.2629 12.0156L75.5095 12.0601L75.7007 12.1136L75.7273 12.127L75.754 12.1314L75.8184 12.1626L75.9296 12.2049L75.9651 12.225L75.9918 12.2361L93.7703 21.1454C94.1389 21.3306 94.4489 21.6149 94.6655 21.9666C94.8821 22.3182 94.9968 22.7234 94.9968 23.1366C94.9968 23.5499 94.8821 23.955 94.6655 24.3067C94.4489 24.6584 94.1389 24.9427 93.7703 25.1279L75.9918 34.0372C75.6833 34.1917 75.3432 34.2721 74.9984 34.2721C74.6536 34.2721 74.3135 34.1917 74.005 34.0372L56.2266 25.1279C55.8579 24.9427 55.548 24.6584 55.3313 24.3067C55.1147 23.955 55 23.5499 55 23.1366C55 22.7234 55.1147 22.3182 55.3313 21.9666C55.548 21.6149 55.8579 21.3306 56.2266 21.1454L74.005 12.2361L74.0295 12.225L74.0695 12.2027L74.2428 12.1314L74.2673 12.127L74.2962 12.1136L74.4873 12.0601L74.7317 12.0156L74.8562 12.0045L75.0162 12Z" fill="url(#paint1_linear_158_916)"/>
<path d="M61.7636 93.8689C62.0268 94.3971 62.07 95.0084 61.8837 95.5684C61.6975 96.1285 61.297 96.5915 60.7703 96.8558L42.9918 105.765C42.6833 105.92 42.3432 106 41.9984 106C41.6536 106 41.3135 105.92 41.005 105.765L23.2266 96.8558C22.7183 96.5811 22.3366 96.1188 22.1625 95.5669C21.9884 95.0151 22.0354 94.4169 22.2937 93.8992C22.5519 93.3815 23.0011 92.9849 23.5461 92.7934C24.0911 92.602 24.689 92.6306 25.2133 92.8733L41.9984 101.279L58.7857 92.8711C59.3127 92.6073 59.9226 92.564 60.4814 92.7507C61.0402 92.9374 61.5022 93.3388 61.7659 93.8667M61.7659 84.9574C62.029 85.4856 62.0722 86.0968 61.886 86.6569C61.6997 87.2169 61.2992 87.68 60.7725 87.9443L42.994 96.8536C42.6856 97.008 42.3455 97.0885 42.0006 97.0885C41.6558 97.0885 41.3157 97.008 41.0073 96.8536L23.2288 87.9443C22.7205 87.6695 22.3388 87.2073 22.1647 86.6554C21.9906 86.1035 22.0376 85.5054 22.2959 84.9877C22.5542 84.47 23.0034 84.0734 23.5483 83.8819C24.0933 83.6904 24.6913 83.7191 25.2155 83.9618L41.9984 92.3699L58.7857 83.9618C59.3127 83.698 59.9226 83.6547 60.4814 83.8414C61.0402 84.0281 61.5022 84.4295 61.7659 84.9574ZM61.7659 76.0481C62.029 76.5763 62.0722 77.1875 61.886 77.7476C61.6997 78.3076 61.2992 78.7707 60.7725 79.0349L42.994 87.9443C42.6856 88.0987 42.3455 88.1792 42.0006 88.1792C41.6558 88.1792 41.3157 88.0987 41.0073 87.9443L23.2288 79.0349C22.7205 78.7602 22.3388 78.298 22.1647 77.7461C21.9906 77.1942 22.0376 76.5961 22.2959 76.0784C22.5542 75.5607 23.0034 75.1641 23.5483 74.9726C24.0933 74.7811 24.6913 74.8098 25.2155 75.0525L41.9984 83.4606L58.7857 75.0525C59.3127 74.7887 59.9226 74.7454 60.4814 74.9321C61.0402 75.1188 61.5022 75.5202 61.7659 76.0481ZM42.0162 57C42.0992 57 42.1814 57.0052 42.2629 57.0156L42.5095 57.0601L42.7007 57.1136L42.7273 57.127L42.754 57.1314L42.8184 57.1626L42.9296 57.2049L42.9651 57.225L42.9918 57.2361L60.7703 66.1454C61.1389 66.3306 61.4489 66.6149 61.6655 66.9666C61.8821 67.3182 61.9968 67.7234 61.9968 68.1366C61.9968 68.5499 61.8821 68.955 61.6655 69.3067C61.4489 69.6584 61.1389 69.9427 60.7703 70.1279L42.9918 79.0372C42.6833 79.1917 42.3432 79.2721 41.9984 79.2721C41.6536 79.2721 41.3135 79.1917 41.005 79.0372L23.2266 70.1279C22.8579 69.9427 22.548 69.6584 22.3313 69.3067C22.1147 68.955 22 68.5499 22 68.1366C22 67.7234 22.1147 67.3182 22.3313 66.9666C22.548 66.6149 22.8579 66.3306 23.2266 66.1454L41.005 57.2361L41.0295 57.225L41.0695 57.2027L41.2428 57.1314L41.2673 57.127L41.2962 57.1136L41.4873 57.0601L41.7317 57.0156L41.8562 57.0045L42.0162 57Z" fill="url(#paint2_linear_158_916)"/>
<defs>
<linearGradient id="paint0_linear_158_916" x1="25" y1="0" x2="25" y2="49" gradientUnits="userSpaceOnUse">
<stop stop-color="#186EBD"/>
<stop offset="1" stop-color="#0B3357"/>
</linearGradient>
<linearGradient id="paint1_linear_158_916" x1="75" y1="12" x2="75" y2="61" gradientUnits="userSpaceOnUse">
<stop stop-color="#186EBD"/>
<stop offset="1" stop-color="#0B3357"/>
</linearGradient>
<linearGradient id="paint2_linear_158_916" x1="42" y1="57" x2="42" y2="106" gradientUnits="userSpaceOnUse">
<stop stop-color="#186EBD"/>
<stop offset="1" stop-color="#0B3357"/>
</linearGradient>
</defs>
</svg>
