<svg width="96" height="96" viewBox="0 0 96 96" fill="none" xmlns="http://www.w3.org/2000/svg">
<path d="M83.5759 70.212C84.0496 71.1605 84.1273 72.2583 83.7921 73.2641C83.4568 74.2699 82.7359 75.1014 81.7879 75.576L49.7879 91.576C49.2327 91.8534 48.6205 91.9979 47.9999 91.9979C47.3792 91.9979 46.7671 91.8534 46.2119 91.576L14.2119 75.576C13.297 75.0826 12.61 74.2525 12.2966 73.2614C11.9832 72.2703 12.0679 71.1961 12.5327 70.2664C12.9976 69.3367 13.8061 68.6245 14.787 68.2805C15.768 67.9366 16.8442 67.9881 17.7879 68.424L47.9999 83.52L78.2159 68.42C79.1644 67.9463 80.2621 67.8686 81.2679 68.2038C82.2737 68.5391 83.1053 69.26 83.5799 70.208M83.5799 54.208C84.0536 55.1565 84.1313 56.2543 83.7961 57.2601C83.4608 58.2659 82.7399 59.0974 81.7919 59.572L49.7919 75.572C49.2367 75.8494 48.6245 75.9939 48.0039 75.9939C47.3832 75.9939 46.7711 75.8494 46.2159 75.572L14.2159 59.572C13.301 59.0786 12.614 58.2485 12.3006 57.2574C11.9872 56.2663 12.0719 55.1922 12.5367 54.2624C13.0016 53.3327 13.8101 52.6205 14.791 52.2765C15.772 51.9326 16.8482 51.9841 17.7919 52.42L47.9999 67.52L78.2159 52.42C79.1644 51.9463 80.2621 51.8686 81.2679 52.2038C82.2737 52.5391 83.1053 53.26 83.5799 54.208ZM83.5799 38.208C84.0536 39.1565 84.1313 40.2543 83.7961 41.2601C83.4608 42.2659 82.7399 43.0974 81.7919 43.572L49.7919 59.572C49.2367 59.8494 48.6245 59.9939 48.0039 59.9939C47.3832 59.9939 46.7711 59.8494 46.2159 59.572L14.2159 43.572C13.301 43.0786 12.614 42.2485 12.3006 41.2574C11.9872 40.2663 12.0719 39.1922 12.5367 38.2624C13.0016 37.3327 13.8101 36.6205 14.791 36.2765C15.772 35.9326 16.8482 35.9841 17.7919 36.42L47.9999 51.52L78.2159 36.42C79.1644 35.9463 80.2621 35.8686 81.2679 36.2038C82.2737 36.5391 83.1053 37.26 83.5799 38.208ZM48.0319 4C48.1812 4 48.3292 4.00933 48.4759 4.028L48.9199 4.108L49.2639 4.204L49.3119 4.228L49.3599 4.236L49.4759 4.292L49.6759 4.368L49.7399 4.404L49.7879 4.424L81.7879 20.424C82.4514 20.7566 83.0093 21.2672 83.3992 21.8987C83.7891 22.5302 83.9956 23.2578 83.9956 24C83.9956 24.7422 83.7891 25.4698 83.3992 26.1013C83.0093 26.7328 82.4514 27.2434 81.7879 27.576L49.7879 43.576C49.2327 43.8534 48.6205 43.9979 47.9999 43.9979C47.3792 43.9979 46.7671 43.8534 46.2119 43.576L14.2119 27.576C13.5484 27.2434 12.9904 26.7328 12.6005 26.1013C12.2106 25.4698 12.0042 24.7422 12.0042 24C12.0042 23.2578 12.2106 22.5302 12.6005 21.8987C12.9904 21.2672 13.5484 20.7566 14.2119 20.424L46.2119 4.424L46.2559 4.404L46.3279 4.364L46.6399 4.236L46.6839 4.228L46.7359 4.204L47.0799 4.108L47.5199 4.028L47.7439 4.008L48.0319 4Z" fill="url(#paint0_linear_158_813)"/>
<defs>
<linearGradient id="paint0_linear_158_813" x1="48.0027" y1="4" x2="48.0027" y2="91.9979" gradientUnits="userSpaceOnUse">
<stop stop-color="#B9B9B9"/>
<stop offset="0.755"/>
</linearGradient>
</defs>
</svg>
