<svg width="512" height="512" viewBox="0 0 512 512" fill="none" xmlns="http://www.w3.org/2000/svg">
<path d="M83.8065 198H35V314L83.8065 198Z" fill="#E1E1E1"/>
<path d="M118.146 198H166.889V314L118.146 198Z" fill="#E1E1E1"/>
<path d="M100.976 240.753L132.041 314H111.66L102.375 290.68H79.6413L100.976 240.753Z" fill="#E1E1E1"/>
<path d="M246.513 271.769L252.268 288.168C252.459 288.579 252.745 288.769 253.254 288.769H264.319C264.923 288.769 265.018 288.484 264.923 287.884L242.062 224.781C241.966 224.275 241.871 224.18 241.362 224.18H227.626C227.245 224.18 227.022 224.465 227.022 224.876C226.831 228.193 226.545 229.205 226.132 230.184L205.751 287.789C205.655 288.484 205.878 288.769 206.45 288.769H216.339C216.943 288.769 217.229 288.579 217.452 287.979L222.889 271.769H246.513ZM226.037 261.056C229.025 252.082 232.968 240.58 234.558 234.008H234.653C236.625 240.896 241.267 254.547 243.365 261.056H226.037Z" fill="#E1E1E1"/>
<path d="M294.312 289.748C300.258 289.748 306.586 288.674 313.008 285.925C313.517 285.735 313.612 285.514 313.612 285.04C313.422 283.271 313.199 280.711 313.199 278.752V219.346C313.199 218.967 313.199 218.777 312.722 218.777H301.943C301.53 218.777 301.339 218.967 301.339 219.472V239.601C299.654 239.411 298.478 239.316 297.079 239.316C279.686 239.316 269.003 250.724 269.003 264.975C269.003 281.501 279.973 289.748 294.312 289.748ZM301.339 278.752C299.559 279.321 297.587 279.542 295.584 279.542C287.699 279.542 281.244 275.118 281.244 264.374C281.244 254.863 287.89 249.238 296.697 249.238C298.478 249.238 300.036 249.428 301.339 249.934V278.752Z" fill="#E1E1E1"/>
<path d="M347.999 239.316C333.15 239.316 323.961 250.629 323.961 264.596C323.961 277.077 331.274 289.748 347.776 289.748C361.735 289.748 371.528 279.542 371.528 264.28C371.528 250.818 363.229 239.316 347.999 239.316ZM347.395 249.238C355.789 249.238 359.35 256.411 359.35 264.596C359.35 274.707 354.104 279.732 347.999 279.732C340.463 279.732 336.012 273.443 336.012 264.374C336.012 255.053 340.75 249.238 347.395 249.238Z" fill="#E1E1E1"/>
<path d="M382.672 218.777C382.258 218.777 381.972 218.967 381.972 219.472V286.715C381.972 286.999 382.258 287.505 382.672 287.6C387.409 289.053 392.369 289.748 397.488 289.748C412.146 289.748 426.391 280.711 426.391 262.51C426.391 249.333 417.297 239.316 403.053 239.316C399.778 239.316 396.725 239.822 394.055 240.707L393.927 219.567C393.927 218.872 393.737 218.777 393.037 218.777H382.672ZM414.213 263.711C414.213 274.612 406.709 279.731 398.601 279.731C396.916 279.731 395.422 279.637 394.055 279.226V250.534C395.612 249.934 397.488 249.428 400.954 249.428C408.776 249.428 414.213 254.357 414.213 263.711Z" fill="#E1E1E1"/>
<path d="M466.617 267.25C471.45 267.25 475.424 267.155 476.792 266.839C477.3 266.744 477.491 266.555 477.587 266.144C477.873 265.07 478 262.826 478 260.077C478 250.724 472.34 239.316 457.714 239.316C442.77 239.316 434.471 251.419 434.471 265.07C434.471 277.172 440.894 289.748 458.891 289.748C465.631 289.748 469.987 288.674 473.739 286.905C474.121 286.715 474.312 286.399 474.312 285.83V277.646C474.312 277.172 474.025 277.077 473.739 277.267C469.987 278.847 465.917 279.637 461.466 279.637C451.387 279.637 446.808 274.107 446.522 267.25H466.617ZM446.522 258.781C447.317 253.978 450.369 248.765 457.205 248.765C464.741 248.765 466.712 255.053 466.712 257.897C466.712 257.991 466.712 258.402 466.712 258.687C466.299 258.781 465.027 258.781 461.275 258.781H446.522Z" fill="#E1E1E1"/>
</svg>
