<svg width="512" height="512" viewBox="0 0 512 512" fill="none" xmlns="http://www.w3.org/2000/svg">
<path d="M209.092 238.643C209.092 241.286 209.381 243.429 209.885 245C210.462 246.571 211.183 248.286 212.193 250.143C212.553 250.714 212.697 251.286 212.697 251.786C212.697 252.5 212.265 253.214 211.327 253.929L206.785 256.929C206.136 257.357 205.487 257.571 204.911 257.571C204.19 257.571 203.468 257.214 202.747 256.571C201.738 255.5 200.873 254.357 200.152 253.214C199.431 252 198.71 250.643 197.917 249C192.293 255.571 185.227 258.857 176.719 258.857C170.663 258.857 165.832 257.143 162.299 253.714C158.766 250.286 156.964 245.714 156.964 240C156.964 233.929 159.127 229 163.525 225.286C167.923 221.571 173.763 219.714 181.189 219.714C183.641 219.714 186.164 219.929 188.832 220.286C191.5 220.643 194.24 221.214 197.124 221.857V216.643C197.124 211.214 195.97 207.429 193.735 205.214C191.428 203 187.534 201.929 181.982 201.929C179.459 201.929 176.863 202.214 174.196 202.857C171.528 203.5 168.932 204.286 166.409 205.286C165.255 205.786 164.39 206.071 163.885 206.214C163.381 206.357 163.02 206.429 162.732 206.429C161.722 206.429 161.218 205.714 161.218 204.214V200.714C161.218 199.571 161.362 198.714 161.722 198.214C162.083 197.714 162.732 197.214 163.741 196.714C166.265 195.429 169.293 194.357 172.826 193.5C176.359 192.571 180.108 192.143 184.073 192.143C192.653 192.143 198.926 194.071 202.964 197.929C206.929 201.786 208.948 207.643 208.948 215.5V238.643H209.092ZM179.819 249.5C182.199 249.5 184.65 249.071 187.246 248.214C189.841 247.357 192.149 245.786 194.095 243.643C195.249 242.286 196.114 240.786 196.547 239.071C196.979 237.357 197.268 235.286 197.268 232.857V229.857C195.177 229.357 192.942 228.929 190.635 228.643C188.327 228.357 186.092 228.214 183.857 228.214C179.026 228.214 175.493 229.143 173.114 231.071C170.735 233 169.581 235.714 169.581 239.286C169.581 242.643 170.446 245.143 172.249 246.857C173.979 248.643 176.503 249.5 179.819 249.5ZM237.716 257.214C236.418 257.214 235.553 257 234.976 256.5C234.4 256.071 233.895 255.071 233.462 253.714L216.519 198.5C216.086 197.071 215.87 196.143 215.87 195.643C215.87 194.5 216.447 193.857 217.6 193.857H224.666C226.036 193.857 226.973 194.071 227.478 194.571C228.055 195 228.487 196 228.92 197.357L241.033 244.643L252.281 197.357C252.641 195.929 253.074 195 253.651 194.571C254.227 194.143 255.237 193.857 256.535 193.857H262.303C263.673 193.857 264.61 194.071 265.187 194.571C265.763 195 266.268 196 266.557 197.357L277.948 245.214L290.422 197.357C290.854 195.929 291.359 195 291.864 194.571C292.441 194.143 293.378 193.857 294.676 193.857H301.381C302.535 193.857 303.184 194.429 303.184 195.643C303.184 196 303.112 196.357 303.04 196.786C302.967 197.214 302.823 197.786 302.535 198.571L285.159 253.786C284.726 255.214 284.221 256.143 283.644 256.571C283.068 257 282.13 257.286 280.905 257.286H274.704C273.334 257.286 272.397 257.071 271.82 256.571C271.243 256.071 270.738 255.143 270.45 253.714L259.274 207.643L248.171 253.643C247.81 255.071 247.378 256 246.801 256.5C246.224 257 245.215 257.214 243.917 257.214H237.716ZM330.366 259.143C326.616 259.143 322.867 258.714 319.262 257.857C315.657 257 312.845 256.071 310.971 255C309.817 254.357 309.024 253.643 308.735 253C308.447 252.357 308.303 251.643 308.303 251V247.357C308.303 245.857 308.88 245.143 309.961 245.143C310.394 245.143 310.826 245.214 311.259 245.357C311.692 245.5 312.341 245.786 313.062 246.071C315.513 247.143 318.181 248 320.993 248.571C323.877 249.143 326.689 249.429 329.573 249.429C334.115 249.429 337.648 248.643 340.099 247.071C342.551 245.5 343.848 243.214 343.848 240.286C343.848 238.286 343.2 236.643 341.902 235.286C340.604 233.929 338.153 232.714 334.62 231.571L324.165 228.357C318.902 226.714 315.008 224.286 312.629 221.071C310.25 217.929 309.024 214.429 309.024 210.714C309.024 207.714 309.673 205.071 310.971 202.786C312.268 200.5 313.999 198.5 316.162 196.929C318.325 195.286 320.776 194.071 323.66 193.214C326.544 192.357 329.573 192 332.745 192C334.331 192 335.99 192.071 337.576 192.286C339.234 192.5 340.748 192.786 342.262 193.071C343.704 193.429 345.074 193.786 346.372 194.214C347.67 194.643 348.679 195.071 349.4 195.5C350.41 196.071 351.131 196.643 351.563 197.286C351.996 197.857 352.212 198.643 352.212 199.643V203C352.212 204.5 351.635 205.286 350.554 205.286C349.977 205.286 349.04 205 347.814 204.429C343.704 202.571 339.09 201.643 333.971 201.643C329.861 201.643 326.616 202.286 324.381 203.643C322.146 205 320.993 207.071 320.993 210C320.993 212 321.714 213.714 323.156 215.071C324.598 216.429 327.265 217.786 331.087 219L341.325 222.214C346.516 223.857 350.265 226.143 352.501 229.071C354.736 232 355.817 235.357 355.817 239.071C355.817 242.143 355.168 244.929 353.943 247.357C352.645 249.786 350.914 251.929 348.679 253.643C346.444 255.429 343.776 256.714 340.676 257.643C337.432 258.643 334.043 259.143 330.366 259.143Z" fill="#E1E1E1"/>
<path fill-rule="evenodd" clip-rule="evenodd" d="M343.993 293.857C320.272 311.214 285.807 320.429 256.174 320.429C214.644 320.429 177.224 305.214 148.96 279.929C146.725 277.929 148.744 275.214 151.412 276.786C181.983 294.357 219.691 305 258.698 305C285.014 305 313.927 299.571 340.532 288.429C344.497 286.643 347.886 291 343.993 293.857Z" fill="#E1E1E1"/>
<path fill-rule="evenodd" clip-rule="evenodd" d="M353.871 282.714C350.842 278.857 333.827 280.857 326.112 281.786C323.805 282.071 323.444 280.071 325.535 278.571C339.09 269.143 361.369 271.857 363.965 275C366.56 278.214 363.244 300.286 350.554 310.857C348.607 312.5 346.733 311.643 347.598 309.5C350.482 302.429 356.899 286.5 353.871 282.714Z" fill="#E1E1E1"/>
</svg>
