<svg width="512" height="512" viewBox="0 0 512 512" fill="none" xmlns="http://www.w3.org/2000/svg">
<g clip-path="url(#clip0_146_134)">
<path d="M133.967 214.38C131.143 214.38 128.87 216.634 128.87 219.435V281.149C128.87 283.95 131.143 286.204 133.967 286.204H173.084C173.823 286.204 174.417 285.614 174.417 284.881V277.802C174.417 277.069 173.823 276.479 173.084 276.479H139.821V253.91H169.731C170.469 253.91 171.064 253.32 171.064 252.587V245.898C171.064 245.165 170.469 244.575 169.731 244.575H139.821V223.876H173.084C173.823 223.876 174.417 223.286 174.417 222.554V215.702C174.417 214.969 173.823 214.38 173.084 214.38H133.967Z" fill="#E1E1E1"/>
<path d="M266.02 232.36C256.713 232.36 250.933 235.54 247.064 240.827V235.303C247.064 234.57 246.469 233.98 245.73 233.98H237.676C236.937 233.98 236.342 234.57 236.342 235.303V302.677C236.342 303.41 236.937 304 237.676 304H245.869C246.608 304 247.203 303.41 247.203 302.677V279.628C250.793 284.756 256.611 287.791 266.02 287.791C281.845 287.791 291.698 275.366 291.698 260.059C291.698 244.752 282.048 232.36 266.02 232.36ZM263.722 241.273C275.107 241.273 280.708 249.684 280.708 260.059C280.708 270.435 275.107 278.846 263.722 278.846C252.337 278.846 246.736 270.435 246.736 260.059C246.736 249.684 252.337 241.273 263.722 241.273Z" fill="#E1E1E1"/>
<path d="M424.954 233.98H433.055C433.794 233.98 434.388 234.57 434.388 235.303V284.881C434.388 285.614 433.794 286.204 433.055 286.204H424.954C424.215 286.204 423.62 285.614 423.62 284.881V235.303C423.62 234.57 424.215 233.98 424.954 233.98Z" fill="#E1E1E1"/>
<path d="M424.838 214.354H433.171C433.91 214.354 434.505 214.944 434.505 215.677V223.944C434.505 224.677 433.91 225.267 433.171 225.267H424.838C424.099 225.267 423.504 224.677 423.504 223.944V215.677C423.504 214.944 424.099 214.354 424.838 214.354Z" fill="#E1E1E1"/>
<path d="M382.339 287.791C391.646 287.791 397.426 284.612 401.295 279.325V284.881C401.295 285.614 401.89 286.204 402.629 286.204H410.683C411.422 286.204 412.017 285.614 412.017 284.881V215.703C412.017 214.97 411.422 214.38 410.683 214.38H402.49C401.751 214.38 401.156 214.97 401.156 215.703V240.817C397.303 235.819 391.748 232.36 382.339 232.36C366.514 232.36 356.66 244.785 356.66 260.092C356.66 275.399 366.31 287.791 382.339 287.791ZM384.637 278.878C373.252 278.878 367.651 270.467 367.651 260.092C367.651 249.717 373.252 241.306 384.637 241.306C396.022 241.306 401.623 249.717 401.623 260.092C401.623 270.467 396.022 278.878 384.637 278.878Z" fill="#E1E1E1"/>
<path d="M469.322 232.393C453.294 232.393 443.644 244.785 443.644 260.092C443.644 275.399 453.294 287.791 469.322 287.791C478.63 287.791 484.409 284.612 488.279 279.325V284.881C488.279 285.614 488.873 286.204 489.612 286.204H497.667C498.405 286.204 499 285.614 499 284.881V260.092V235.303C499 234.57 498.405 233.98 497.667 233.98H489.612C488.873 233.98 488.279 234.57 488.279 235.303V240.859C484.409 235.573 478.63 232.393 469.322 232.393ZM471.62 241.306C483.005 241.306 488.607 249.717 488.607 260.092C488.607 270.468 483.005 278.878 471.62 278.878C460.235 278.878 454.634 270.468 454.634 260.092C454.634 249.717 460.235 241.306 471.62 241.306Z" fill="#E1E1E1"/>
<path d="M183.044 233.98C181.893 233.98 181.686 234.882 182.209 235.596L199.353 258.886L180.536 284.588C180.013 285.302 180.22 286.204 181.371 286.204H190.654C191.459 286.204 191.877 285.931 192.145 285.539L204.967 266.769L218.322 285.539C218.597 285.926 219.008 286.204 219.813 286.204H229.451C230.602 286.204 230.81 285.3 230.286 284.588L211.36 258.886L228.397 235.596C228.92 234.882 228.713 233.98 227.562 233.98H218.461C217.656 233.98 217.238 234.253 216.97 234.644L205.719 251.048L194.096 234.644C193.822 234.257 193.41 233.98 192.605 233.98H183.044Z" fill="#E1E1E1"/>
<path d="M324.204 232.36C308.086 232.36 298.385 243.857 298.385 260.076C298.385 277.964 309.851 287.791 324.204 287.791C341.548 287.791 348.385 277.672 348.767 277.293C349.207 276.857 349.087 276.046 348.718 275.686L343.705 270.811C343.336 270.452 342.633 270.396 342.147 270.883C341.78 271.249 335.677 278.902 325.679 278.902C315.052 278.902 309.82 272.443 309.116 262.928H348.718C349.946 262.928 350.013 261.845 350.016 261.134C350.099 241.816 338.782 232.36 324.204 232.36ZM324.239 240.766C333.987 240.766 338.071 246.581 338.932 254.864H309.501C310.658 246.744 314.957 240.766 324.239 240.766Z" fill="#E1E1E1"/>
<path fill-rule="evenodd" clip-rule="evenodd" d="M82.2829 207H31.1215C21.0822 207 13 215.018 13 224.977V275.729C13 285.688 21.0822 293.705 31.1215 293.705H82.2829C92.3222 293.705 100.404 285.688 100.404 275.729V224.977C100.404 215.018 92.3222 207 82.2829 207ZM35.6841 223.137C36.1154 222.709 36.6273 222.523 37.4417 222.523L78.7847 222.523C79.5512 222.523 80.3101 222.673 81.0183 222.964C81.7264 223.255 82.3698 223.681 82.9118 224.219C83.4538 224.757 83.8838 225.395 84.1771 226.097C84.4704 226.8 84.6214 227.553 84.6215 228.313L84.6215 269.326C84.6215 270.134 84.4343 270.642 84.003 271.07L75.269 279.734C75.1069 279.895 74.8867 279.985 74.6574 279.985C74.1799 279.985 73.7928 279.601 73.7928 279.127V241.568L50.5161 264.658L50.5161 264.658C50.0574 265.113 49.7909 265.378 48.8907 265.378H42.7661C42.3952 265.378 42.0741 265.211 41.8321 264.971C41.59 264.731 41.4213 264.412 41.4213 264.044L41.4213 257.968C41.4213 257.075 41.6882 256.811 42.1469 256.356L65.4236 233.265H27.5614C27.0839 233.265 26.6967 232.881 26.6968 232.408C26.6968 232.18 26.7879 231.962 26.9501 231.801L35.6841 223.137Z" fill="#E1E1E1"/>
<path d="M30.0238 267.066H38.4249C39.1277 267.066 39.6934 267.627 39.6934 268.324V276.711C39.6934 277.408 39.1277 277.969 38.4249 277.969H30.0238C29.321 277.969 28.7552 277.408 28.7552 276.711V268.324C28.7552 267.627 29.321 267.066 30.0238 267.066Z" fill="#E1E1E1"/>
</g>
<defs>
<clipPath id="clip0_146_134">
<rect width="486" height="97" fill="white" transform="translate(13 207)"/>
</clipPath>
</defs>
</svg>
