<svg width="512" height="512" viewBox="0 0 512 512" fill="none" xmlns="http://www.w3.org/2000/svg">
<path fill-rule="evenodd" clip-rule="evenodd" d="M233.389 184.038C241.815 175.233 253.543 169.78 266.499 169.78C283.774 169.78 298.745 179.414 306.807 193.767C313.963 190.556 321.713 188.899 329.552 188.903C360.646 188.903 385.887 214.431 385.887 245.933C385.887 277.435 360.646 302.963 329.552 302.963C325.751 302.963 322.047 302.58 318.419 301.855C311.365 314.475 297.881 323.049 282.526 323.049C276.274 323.062 270.103 321.638 264.484 318.887C257.334 335.746 240.683 347.595 221.297 347.595C201.047 347.595 183.868 334.783 177.246 316.768C174.299 317.392 171.295 317.706 168.283 317.704C144.194 317.704 124.712 297.859 124.712 273.487C124.712 257.11 133.484 242.852 146.497 235.145C143.736 228.761 142.315 221.875 142.323 214.915C142.323 186.785 165.068 164.05 193.091 164.05C209.502 164.05 224.186 171.901 233.399 184.088" fill="#111111"/>
<path fill-rule="evenodd" clip-rule="evenodd" d="M162.755 259.179C162.591 259.609 162.813 259.698 162.866 259.774C163.357 260.131 163.855 260.389 164.354 260.679C167.022 262.095 169.536 262.509 172.166 262.509C177.521 262.509 180.851 259.648 180.851 255.043V254.953C180.851 250.695 177.089 249.144 173.577 248.036L173.117 247.887C170.458 247.022 168.165 246.268 168.165 244.515V244.425C168.165 242.922 169.508 241.815 171.581 241.815C173.885 241.815 176.629 242.584 178.386 243.558C178.386 243.558 178.906 243.895 179.095 243.392C179.198 243.119 180.093 240.714 180.189 240.444C180.291 240.162 180.112 239.949 179.929 239.839C177.913 238.606 175.13 237.768 172.251 237.768L171.717 237.77C166.813 237.77 163.386 240.746 163.386 245.004V245.096C163.386 249.585 167.168 251.049 170.699 252.061L171.267 252.238C173.839 253.032 176.066 253.722 176.066 255.533V255.623C176.066 257.29 174.617 258.533 172.294 258.533C171.391 258.533 168.513 258.517 165.394 256.538C165.017 256.318 164.802 256.159 164.511 255.981C164.358 255.887 163.974 255.719 163.807 256.223L162.751 259.171M241.159 259.171C240.995 259.601 241.218 259.691 241.272 259.767C241.761 260.123 242.261 260.381 242.76 260.671C245.428 262.087 247.942 262.502 250.572 262.502C255.927 262.502 259.257 259.64 259.257 255.036V254.945C259.257 250.687 255.505 249.136 251.983 248.028L251.523 247.879C248.865 247.014 246.571 246.26 246.571 244.507V244.418C246.571 242.915 247.914 241.807 249.987 241.807C252.291 241.807 255.026 242.577 256.792 243.551C256.792 243.551 257.312 243.888 257.502 243.384C257.604 243.111 258.5 240.706 258.586 240.436C258.689 240.154 258.51 239.941 258.327 239.831C256.312 238.598 253.529 237.76 250.65 237.76L250.114 237.762C245.21 237.762 241.784 240.739 241.784 244.997V245.088C241.784 249.577 245.565 251.042 249.097 252.053L249.664 252.23C252.246 253.024 254.463 253.714 254.463 255.525V255.616C254.463 257.282 253.013 258.525 250.691 258.525C249.786 258.525 246.9 258.509 243.791 256.531C243.413 256.31 243.193 256.158 242.907 255.973C242.81 255.911 242.358 255.734 242.203 256.216L241.148 259.164M294.699 250.147C294.699 252.748 294.216 254.8 293.269 256.254C292.325 257.69 290.899 258.393 288.912 258.393C286.926 258.393 285.505 257.695 284.574 256.264C283.637 254.819 283.164 252.757 283.164 250.156C283.164 247.555 283.64 245.513 284.574 244.078C285.503 242.652 286.916 241.968 288.912 241.968C290.908 241.968 292.329 242.659 293.269 244.078C294.221 245.513 294.699 247.555 294.699 250.156M299.171 245.33C298.731 243.837 298.049 242.527 297.137 241.428C296.224 240.33 295.074 239.444 293.701 238.808C292.338 238.167 290.726 237.845 288.903 237.845C287.079 237.845 285.476 238.169 284.104 238.808C282.741 239.448 281.58 240.33 280.668 241.428C279.759 242.527 279.075 243.837 278.634 245.33C278.197 246.813 277.975 248.432 277.975 250.156C277.975 251.881 278.197 253.499 278.634 254.983C279.072 256.476 279.757 257.786 280.668 258.884C281.581 259.982 282.741 260.859 284.104 261.485C285.476 262.11 287.089 262.427 288.903 262.427C290.716 262.427 292.329 262.11 293.692 261.485C295.054 260.861 296.216 259.982 297.127 258.884C298.038 257.786 298.72 256.476 299.162 254.983C299.598 253.499 299.819 251.881 299.819 250.156C299.819 248.442 299.598 246.813 299.162 245.33M335.919 257.661C335.772 257.224 335.348 257.389 335.348 257.389C334.698 257.639 334.004 257.87 333.265 257.985C332.52 258.103 331.691 258.162 330.818 258.162C328.658 258.162 326.931 257.515 325.703 256.235C324.465 254.954 323.774 252.892 323.783 250.098C323.79 247.555 324.402 245.648 325.501 244.184C326.586 242.738 328.255 241.987 330.463 241.987C332.305 241.987 333.716 242.202 335.194 242.666C335.194 242.666 335.544 242.819 335.712 242.356C336.105 241.267 336.395 240.487 336.816 239.293C336.935 238.951 336.643 238.806 336.537 238.765C335.957 238.537 334.588 238.164 333.552 238.007C332.583 237.859 331.46 237.782 330.193 237.782C328.312 237.782 326.642 238.105 325.212 238.744C323.782 239.383 322.573 240.267 321.613 241.365C320.654 242.463 319.924 243.773 319.435 245.266C318.95 246.75 318.705 248.378 318.705 250.102C318.705 253.821 319.703 256.836 321.68 259.042C323.657 261.258 326.633 262.375 330.51 262.375C332.803 262.375 335.155 261.91 336.844 261.239C336.844 261.239 337.166 261.083 337.026 260.705L335.922 257.661M343.744 247.642C343.958 246.197 344.353 244.993 344.973 244.058C345.901 242.633 347.314 241.852 349.301 241.852C351.287 241.852 352.602 242.636 353.543 244.058C354.167 244.998 354.439 246.245 354.541 247.642L343.696 247.64L343.744 247.642ZM358.812 244.463C358.431 243.027 357.487 241.573 356.873 240.908C355.894 239.858 354.944 239.116 353.994 238.712C352.622 238.126 351.146 237.826 349.656 237.828C347.765 237.828 346.047 238.149 344.656 238.801C343.264 239.458 342.093 240.352 341.172 241.47C340.252 242.587 339.56 243.907 339.118 245.419C338.677 246.913 338.454 248.55 338.454 250.265C338.454 252.018 338.685 253.647 339.14 255.12C339.6 256.604 340.34 257.905 341.338 258.983C342.336 260.072 343.613 260.92 345.148 261.517C346.674 262.11 348.526 262.417 350.647 262.41C355.024 262.396 357.327 261.418 358.267 260.888C358.435 260.794 358.594 260.631 358.396 260.162L357.407 257.378C357.256 256.962 356.837 257.113 356.837 257.113C355.753 257.519 354.217 258.249 350.618 258.24C348.267 258.236 346.53 257.539 345.436 256.448C344.323 255.33 343.766 253.702 343.68 251.39L358.843 251.402C358.843 251.402 359.242 251.398 359.284 251.007C359.3 250.845 359.803 247.886 358.832 244.466L358.812 244.463ZM222.533 247.642C222.747 246.197 223.143 244.993 223.762 244.058C224.691 242.633 226.103 241.852 228.09 241.852C230.076 241.852 231.391 242.636 232.332 244.058C232.955 244.998 233.227 246.245 233.33 247.642L222.485 247.64L222.533 247.642ZM237.601 244.463C237.22 243.027 236.276 241.573 235.662 240.908C234.683 239.858 233.733 239.116 232.783 238.712C231.411 238.126 229.935 237.826 228.445 237.828C226.554 237.828 224.836 238.149 223.445 238.801C222.053 239.458 220.882 240.352 219.961 241.47C219.043 242.587 218.349 243.907 217.907 245.419C217.467 246.913 217.245 248.55 217.245 250.265C217.245 252.018 217.474 253.647 217.932 255.12C218.391 256.604 219.132 257.905 220.12 258.983C221.119 260.072 222.395 260.92 223.93 261.517C225.456 262.11 227.299 262.417 229.43 262.41C233.806 262.396 236.109 261.418 237.05 260.888C237.217 260.794 237.376 260.631 237.177 260.162L236.189 257.378C236.036 256.962 235.618 257.113 235.618 257.113C234.533 257.519 232.998 258.249 229.399 258.24C227.057 258.236 225.31 257.539 224.216 256.448C223.103 255.33 222.547 253.702 222.46 251.39L237.624 251.402C237.624 251.402 238.023 251.398 238.064 251.007C238.08 250.845 238.583 247.886 237.611 244.466L237.601 244.463ZM189.807 257.564C189.213 257.089 189.131 256.972 188.934 256.663C188.633 256.197 188.48 255.536 188.48 254.688C188.48 253.358 188.921 252.395 189.833 251.75C189.823 251.752 191.138 250.613 194.228 250.651C195.604 250.676 196.976 250.794 198.336 251.003V257.91H198.338C198.338 257.91 196.419 258.326 194.25 258.457C191.169 258.642 189.806 257.566 189.816 257.569L189.807 257.564ZM195.834 246.871C195.22 246.826 194.423 246.804 193.473 246.804C192.178 246.804 190.92 246.966 189.75 247.284C188.569 247.603 187.504 248.099 186.592 248.757C185.678 249.412 184.926 250.269 184.394 251.262C183.858 252.264 183.584 253.439 183.584 254.769C183.584 256.117 183.818 257.283 184.278 258.237C184.73 259.183 185.409 260.001 186.255 260.616C187.097 261.231 188.136 261.686 189.336 261.955C190.526 262.228 191.87 262.366 193.347 262.366C194.902 262.366 196.447 262.235 197.944 261.981C199.22 261.761 200.49 261.513 201.754 261.238C202.259 261.121 202.82 260.968 202.82 260.968C203.194 260.873 203.165 260.471 203.165 260.471L203.157 246.599C203.157 243.554 202.347 241.291 200.748 239.894C199.155 238.497 196.823 237.794 193.799 237.794C192.667 237.794 190.834 237.948 189.74 238.168C189.74 238.168 186.439 238.812 185.076 239.883C185.076 239.883 184.776 240.068 184.939 240.487L186.014 243.377C186.148 243.752 186.511 243.624 186.511 243.624C186.511 243.624 186.626 243.579 186.76 243.499C189.668 241.909 193.353 241.957 193.353 241.957C194.985 241.957 196.252 242.29 197.096 242.94C197.922 243.577 198.344 244.539 198.344 246.562V247.205C197.048 247.016 195.848 246.907 195.848 246.907L195.834 246.871ZM317.717 239.039C317.739 238.988 317.75 238.934 317.75 238.878C317.751 238.823 317.74 238.768 317.719 238.717C317.698 238.666 317.666 238.62 317.627 238.581C317.587 238.543 317.541 238.512 317.489 238.492C317.231 238.394 315.944 238.121 314.956 238.059C313.056 237.94 312 238.262 311.05 238.69C310.111 239.114 309.073 239.797 308.497 240.587L308.495 238.738C308.495 238.483 308.316 238.278 308.06 238.278H304.183C303.932 238.278 303.749 238.483 303.749 238.738V261.376C303.75 261.499 303.798 261.616 303.884 261.702C303.97 261.789 304.087 261.838 304.209 261.838H308.182C308.304 261.838 308.421 261.789 308.507 261.702C308.593 261.616 308.641 261.499 308.641 261.376V250.009C308.641 248.487 308.808 246.974 309.141 246.021C309.469 245.077 309.915 244.325 310.465 243.786C310.99 243.265 311.632 242.878 312.337 242.659C312.998 242.468 313.683 242.371 314.371 242.371C315.163 242.371 316.032 242.576 316.032 242.576C316.323 242.608 316.486 242.429 316.584 242.165C316.844 241.471 317.582 239.391 317.726 238.977" fill="#F1F1F1"/>
<path fill-rule="evenodd" clip-rule="evenodd" d="M280.608 228.591C280.117 228.442 279.617 228.323 279.112 228.234C278.432 228.12 277.743 228.067 277.054 228.074C274.316 228.074 272.158 228.851 270.642 230.384C269.137 231.907 268.113 234.225 267.6 237.276L267.415 238.306H263.978C263.978 238.306 263.559 238.289 263.47 238.748L262.906 241.908C262.867 242.211 262.996 242.399 263.399 242.397H266.745L263.35 261.417C263.085 262.949 262.78 264.209 262.443 265.163C262.111 266.106 261.787 266.812 261.388 267.324C261.001 267.82 260.634 268.185 260.002 268.398C259.48 268.575 258.879 268.656 258.221 268.656C257.854 268.656 257.367 268.594 257.007 268.522C256.647 268.45 256.46 268.369 256.19 268.256C256.19 268.256 255.798 268.105 255.643 268.5C255.517 268.823 254.626 271.284 254.52 271.589C254.413 271.889 254.563 272.126 254.753 272.195C255.199 272.355 255.53 272.457 256.136 272.6C256.979 272.8 257.689 272.812 258.354 272.812C259.748 272.812 261.017 272.616 262.07 272.234C263.13 271.85 264.052 271.18 264.868 270.274C265.75 269.296 266.304 268.272 266.835 266.875C267.36 265.491 267.807 263.772 268.165 261.769L271.576 242.397H276.563C276.563 242.397 276.983 242.413 277.07 241.955L277.635 238.795C277.674 238.493 277.545 238.304 277.14 238.306H272.301C272.325 238.196 272.544 236.487 273.1 234.878C273.337 234.192 273.783 233.638 274.161 233.257C274.515 232.895 274.949 232.623 275.429 232.465C275.955 232.302 276.504 232.223 277.054 232.23C277.51 232.23 277.957 232.285 278.298 232.356C278.767 232.457 278.949 232.51 279.072 232.546C279.566 232.697 279.632 232.551 279.729 232.311L280.886 229.121C281.005 228.778 280.715 228.633 280.608 228.591ZM212.973 261.457C212.973 261.712 212.793 261.919 212.54 261.919H208.525C208.271 261.919 208.09 261.712 208.09 261.457V229.023C208.09 228.77 208.271 228.565 208.525 228.565H212.54C212.793 228.565 212.973 228.77 212.973 229.023V261.457Z" fill="#F1F1F1"/>
</svg>
