<svg width="82" height="96" viewBox="0 0 82 96" fill="none" xmlns="http://www.w3.org/2000/svg">
<path d="M71.3244 59.8477C71.7282 60.6562 71.7944 61.5919 71.5087 62.4493C71.2229 63.3066 70.6084 64.0154 69.8003 64.4199L42.524 78.0581C42.0507 78.2946 41.5289 78.4177 40.9999 78.4177C40.4709 78.4177 39.9491 78.2946 39.4758 78.0581L12.1995 64.4199C11.4196 63.9994 10.8341 63.2918 10.5669 62.447C10.2998 61.6022 10.3719 60.6866 10.7682 59.8941C11.1644 59.1017 11.8536 58.4945 12.6897 58.2014C13.5259 57.9083 14.4433 57.9521 15.2476 58.3237L40.9999 71.1913L66.7556 58.3203C67.5641 57.9165 68.4998 57.8502 69.3571 58.136C70.2145 58.4218 70.9233 59.0362 71.3278 59.8443M71.3278 46.2062C71.7316 47.0146 71.7978 47.9504 71.5121 48.8077C71.2263 49.665 70.6118 50.3738 69.8037 50.7784L42.5274 64.4165C42.0541 64.653 41.5323 64.7761 41.0033 64.7761C40.4743 64.7761 39.9525 64.653 39.4792 64.4165L12.2029 50.7784C11.423 50.3578 10.8375 49.6502 10.5703 48.8054C10.3032 47.9606 10.3754 47.045 10.7716 46.2526C11.1678 45.4601 11.857 44.853 12.6931 44.5598C13.5293 44.2667 14.4467 44.3105 15.251 44.6821L40.9999 57.5531L66.7556 44.6821C67.5641 44.2783 68.4998 44.2121 69.3571 44.4978C70.2145 44.7836 70.9233 45.3981 71.3278 46.2062ZM71.3278 32.568C71.7316 33.3765 71.7978 34.3122 71.5121 35.1695C71.2263 36.0268 70.6118 36.7356 69.8037 37.1402L42.5274 50.7784C42.0541 51.0148 41.5323 51.1379 41.0033 51.1379C40.4743 51.1379 39.9525 51.0148 39.4792 50.7784L12.2029 37.1402C11.423 36.7196 10.8375 36.012 10.5703 35.1672C10.3032 34.3225 10.3754 33.4069 10.7716 32.6144C11.1678 31.8219 11.857 31.2148 12.6931 30.9216C13.5293 30.6285 14.4467 30.6723 15.251 31.0439L40.9999 43.9149L66.7556 31.0439C67.5641 30.6401 68.4998 30.5739 69.3571 30.8596C70.2145 31.1454 70.9233 31.7599 71.3278 32.568ZM41.0272 3.40955C41.1545 3.40955 41.2806 3.4175 41.4056 3.43341L41.7841 3.5016L42.0773 3.58343L42.1182 3.60389L42.1591 3.61071L42.258 3.65844L42.4285 3.72322L42.4831 3.75391L42.524 3.77096L69.8003 17.4091C70.3659 17.6926 70.8415 18.1278 71.1738 18.6662C71.5062 19.2045 71.6822 19.8246 71.6822 20.4573C71.6822 21.0899 71.5062 21.7101 71.1738 22.2484C70.8415 22.7867 70.3659 23.2219 69.8003 23.5054L42.524 37.1436C42.0507 37.3801 41.5289 37.5032 40.9999 37.5032C40.4709 37.5032 39.9491 37.3801 39.4758 37.1436L12.1995 23.5054C11.6339 23.2219 11.1583 22.7867 10.826 22.2484C10.4936 21.7101 10.3176 21.0899 10.3176 20.4573C10.3176 19.8246 10.4936 19.2045 10.826 18.6662C11.1583 18.1278 11.6339 17.6926 12.1995 17.4091L39.4758 3.77096L39.5133 3.75391L39.5747 3.71981L39.8407 3.61071L39.8782 3.60389L39.9225 3.58343L40.2157 3.5016L40.5908 3.43341L40.7817 3.41636L41.0272 3.40955Z" fill="url(#paint0_linear_158_860)"/>
<g clip-path="url(#clip0_158_860)">
<path d="M26.8845 61.3079C25.5857 59.5708 23.1228 59.2135 21.3952 60.5194C19.6675 61.8253 19.3122 64.3015 20.611 66.0386L25.2794 72.297C25.8675 73.0855 25.7818 74.1819 25.0956 74.8718L23.5272 76.4487C22.7062 77.2741 21.3707 77.2125 20.6355 76.3132L9.63224 63.0326V44.7503C9.63224 42.5697 7.88005 40.808 5.71126 40.808C3.54247 40.808 1.79028 42.5697 1.79028 44.7503V71.6564C1.79028 72.9992 2.24365 74.3051 3.07685 75.3523L15.8323 91.8976C16.4449 92.6983 16.8615 93.61 17.1066 94.5709C17.3272 95.421 18.0991 96 18.9813 96H35.1186C36.1969 96 37.0791 95.113 37.0791 94.0288V80.2308C37.0791 76.8183 35.9763 73.5043 33.9423 70.7694L26.8845 61.3079ZM76.2888 40.808C74.1201 40.808 72.3679 42.5697 72.3679 44.7503V63.0326L61.3646 76.3132C60.6294 77.2002 59.2816 77.2618 58.4729 76.4487L56.9045 74.8718C56.2183 74.1819 56.1326 73.0855 56.7207 72.297L61.3891 66.0386C62.688 64.3015 62.3326 61.8253 60.6049 60.5194C58.8773 59.2135 56.4144 59.5708 55.1156 61.3079L48.0578 70.7694C46.0238 73.5043 44.921 76.8183 44.921 80.2308V94.0288C44.921 95.113 45.8033 96 46.8815 96H63.0188C63.8888 96 64.673 95.421 64.8935 94.5709C65.1386 93.61 65.5552 92.6983 66.1678 91.8976L78.9233 75.3523C79.7565 74.3051 80.2098 72.9992 80.2098 71.6564V44.7503C80.2098 42.5697 78.4576 40.808 76.2888 40.808Z" fill="#515151"/>
</g>
<defs>
<linearGradient id="paint0_linear_158_860" x1="41.0023" y1="3.40955" x2="41.0023" y2="78.4177" gradientUnits="userSpaceOnUse">
<stop stop-color="#B9B9B9"/>
<stop offset="0.755"/>
</linearGradient>
<clipPath id="clip0_158_860">
<rect width="78.4195" height="63.0766" fill="white" transform="translate(1.79028 32.9234)"/>
</clipPath>
</defs>
</svg>
